<svg width="40" height="40" viewBox="0 0 40 40" fill="none" xmlns="http://www.w3.org/2000/svg">
<path fill-rule="evenodd" clip-rule="evenodd" d="M22.3568 19.9999L29.5118 12.8449C30.1635 12.1933 30.1635 11.1399 29.5118 10.4883C28.8602 9.8366 27.8068 9.8366 27.1552 10.4883L20.0002 17.6433L12.8452 10.4883C12.1935 9.8366 11.1402 9.8366 10.4885 10.4883C9.83684 11.1399 9.83684 12.1933 10.4885 12.8449L17.6435 19.9999L10.4885 27.1549C9.83684 27.8066 9.83684 28.8599 10.4885 29.5116C10.8135 29.8366 11.2402 29.9999 11.6668 29.9999C12.0935 29.9999 12.5202 29.8366 12.8452 29.5116L20.0002 22.3566L27.1552 29.5116C27.4802 29.8366 27.9068 29.9999 28.3335 29.9999C28.7602 29.9999 29.1868 29.8366 29.5118 29.5116C30.1635 28.8599 30.1635 27.8066 29.5118 27.1549L22.3568 19.9999Z" fill="#231F20"/>
<mask id="mask0" mask-type="alpha" maskUnits="userSpaceOnUse" x="9" y="9" width="22" height="21">
<path fill-rule="evenodd" clip-rule="evenodd" d="M22.3568 19.9999L29.5118 12.8449C30.1635 12.1933 30.1635 11.1399 29.5118 10.4883C28.8602 9.8366 27.8068 9.8366 27.1552 10.4883L20.0002 17.6433L12.8452 10.4883C12.1935 9.8366 11.1402 9.8366 10.4885 10.4883C9.83684 11.1399 9.83684 12.1933 10.4885 12.8449L17.6435 19.9999L10.4885 27.1549C9.83684 27.8066 9.83684 28.8599 10.4885 29.5116C10.8135 29.8366 11.2402 29.9999 11.6668 29.9999C12.0935 29.9999 12.5202 29.8366 12.8452 29.5116L20.0002 22.3566L27.1552 29.5116C27.4802 29.8366 27.9068 29.9999 28.3335 29.9999C28.7602 29.9999 29.1868 29.8366 29.5118 29.5116C30.1635 28.8599 30.1635 27.8066 29.5118 27.1549L22.3568 19.9999Z" fill="white"/>
</mask>
<g mask="url(#mask0)">
<rect width="40" height="40" fill="#131B3A"/>
</g>
</svg>
