<svg id="Layer_1" data-name="Layer 1" xmlns="http://www.w3.org/2000/svg" xmlns:xlink="http://www.w3.org/1999/xlink" viewBox="0 0 1351.47 1351.47"><defs><style>.cls-1{fill:#07102b;}.cls-2{opacity:0.4;}.cls-3{opacity:0.1;}.cls-4{fill:#fff;}.cls-5{fill:none;stroke:#fff;stroke-miterlimit:10;stroke-width:20px;}.cls-6{fill:url(#New_Gradient_Swatch);}</style><linearGradient id="New_Gradient_Swatch" x1="466.99" y1="379.37" x2="1221.87" y2="1324.99" gradientUnits="userSpaceOnUse"><stop offset="0.19" stop-color="#e91b58"/><stop offset="0.26" stop-color="#eb3949"/><stop offset="0.39" stop-color="#ef6633"/><stop offset="0.51" stop-color="#f28b21"/><stop offset="0.64" stop-color="#f5a812"/><stop offset="0.76" stop-color="#f7bc08"/><stop offset="0.88" stop-color="#f8c902"/><stop offset="1" stop-color="#f8cd00"/></linearGradient></defs><title>logo</title><rect class="cls-1" width="1351.47" height="1351.47"/><g class="cls-2"><g class="cls-3"><path class="cls-4" d="M118.83,237.38h0a1,1,0,0,1-1-1l.36-13.09a1,1,0,0,1,1-1,1,1,0,0,1,1,1l-.37,13.09A1,1,0,0,1,118.83,237.38Z"/><path class="cls-4" d="M87.09,130.23a1,1,0,0,1-1-.79l-1-4.42a1,1,0,1,1,2-.42l.95,4.42a1,1,0,0,1-.76,1.19Z"/><path class="cls-4" d="M52.06,250a1,1,0,0,1-.94-.66L49.6,245a1,1,0,1,1,1.89-.67L53,248.63a1,1,0,0,1-.6,1.27A1,1,0,0,1,52.06,250Z"/><path class="cls-4" d="M170.27,185.64a1.12,1.12,0,0,1-.31,0L162,183a1,1,0,0,1-.64-1.27,1,1,0,0,1,1.26-.63l8,2.63a1,1,0,0,1,.63,1.26A1,1,0,0,1,170.27,185.64Z"/><path class="cls-4" d="M241.76,155.22a.93.93,0,0,1-.57-.19l-3.57-2.54a1,1,0,1,1,1.16-1.62l3.57,2.53a1,1,0,0,1-.59,1.82Z"/><path class="cls-4" d="M271.32,117.15a1,1,0,0,1-.92-.6L268.84,113a1,1,0,1,1,1.83-.79l1.57,3.59a1,1,0,0,1-.52,1.31A1,1,0,0,1,271.32,117.15Z"/><path class="cls-4" d="M200.28,5.2a1,1,0,0,1-.53-.15l-5.09-3.16a1,1,0,0,1-.33-1.37,1,1,0,0,1,1.38-.33l5.09,3.15a1,1,0,0,1-.52,1.86Z"/><path class="cls-4" d="M142.77,139.33a1,1,0,0,1-.9-.55,1,1,0,0,1,.45-1.35l3.79-1.88a1,1,0,1,1,.89,1.79l-3.79,1.88A.87.87,0,0,1,142.77,139.33Z"/><path class="cls-4" d="M34.23,149.2a1,1,0,0,1-.52-.15,1,1,0,0,1-.33-1.37l5.34-8.74a1,1,0,0,1,1.37-.34,1,1,0,0,1,.33,1.38l-5.34,8.74A1,1,0,0,1,34.23,149.2Z"/><path class="cls-4" d="M35.59,5.22a1,1,0,0,1-.07-2l15-1.08a1,1,0,1,1,.14,2l-15,1.07Z"/><path class="cls-4" d="M248.87,107.61a1,1,0,0,1-.83-.44l-2.47-3.66a1,1,0,1,1,1.66-1.12l2.47,3.66a1,1,0,0,1-.27,1.39A1,1,0,0,1,248.87,107.61Z"/><path class="cls-4" d="M107.55,117.45a1,1,0,0,1-.73-.31,1,1,0,0,1,0-1.42l1.91-1.79a1,1,0,0,1,1.41,0,1,1,0,0,1,0,1.42l-1.91,1.79A1,1,0,0,1,107.55,117.45Z"/><path class="cls-4" d="M247.15,60.51a.85.85,0,0,1-.23,0,1,1,0,0,1-.74-1.21L247,56a1,1,0,0,1,1.94.47l-.79,3.29A1,1,0,0,1,247.15,60.51Z"/><path class="cls-4" d="M64,182.82a1,1,0,0,1-.5-.13l-2.64-1.52a1,1,0,1,1,1-1.73L64.46,181a1,1,0,0,1-.49,1.87Z"/><path class="cls-4" d="M258.36,124.19h-.13l-2.65-.33a1,1,0,0,1,.25-2l2.65.33a1,1,0,0,1-.12,2Z"/><path class="cls-4" d="M219.1,140.21a1,1,0,0,1-.56-.17l-8-5.4a1,1,0,1,1,1.11-1.66l8,5.39a1,1,0,0,1,.27,1.39A1,1,0,0,1,219.1,140.21Z"/><path class="cls-4" d="M125.45,6.69A1,1,0,0,1,125,4.8l6.7-3.47a1,1,0,1,1,.92,1.78l-6.7,3.47A1.07,1.07,0,0,1,125.45,6.69Z"/><path class="cls-4" d="M187.92,103.14a1,1,0,0,1-.38-.08l-5.66-2.35a1,1,0,1,1,.77-1.85l5.66,2.35a1,1,0,0,1,.53,1.31A1,1,0,0,1,187.92,103.14Z"/><path class="cls-4" d="M109.94,14.88a1,1,0,0,1-.88-.54l-5.81-11.1A1,1,0,1,1,105,2.31l5.81,11.11a1,1,0,0,1-.43,1.35A1,1,0,0,1,109.94,14.88Z"/><path class="cls-4" d="M125.49,130a1,1,0,0,1-1-1l-.16-3.67a1,1,0,0,1,1-1,1,1,0,0,1,1,1l.16,3.67a1,1,0,0,1-.95,1Z"/><path class="cls-4" d="M216.08,6.9a1,1,0,0,1-.48-.13,1,1,0,0,1-.39-1.36l1.92-3.48a1,1,0,0,1,1.75,1L217,6.38A1,1,0,0,1,216.08,6.9Z"/><path class="cls-4" d="M244.14,248.6a1,1,0,0,1-1-.87l-1-7.59a1,1,0,0,1,2-.27l1,7.59a1,1,0,0,1-.85,1.13Z"/><path class="cls-4" d="M203,216.76a1,1,0,0,1-1-.75l-1.08-4.24a1,1,0,0,1,1.94-.49l1.08,4.23a1,1,0,0,1-.72,1.22A1.07,1.07,0,0,1,203,216.76Z"/><path class="cls-4" d="M73.52,231.54a1,1,0,0,1-.81-1.59l9-12.26a1,1,0,1,1,1.61,1.18l-8.94,12.26A1,1,0,0,1,73.52,231.54Z"/><path class="cls-4" d="M235.58,12.4h-.17a1,1,0,0,1-.82-1.16l1.35-7.82a1,1,0,1,1,2,.34l-1.35,7.82A1,1,0,0,1,235.58,12.4Z"/><path class="cls-4" d="M245.31,35.46a1,1,0,0,1-1-.82l-.83-4.59a1,1,0,0,1,.8-1.17,1,1,0,0,1,1.17.81l.83,4.59a1,1,0,0,1-.81,1.16Z"/><path class="cls-4" d="M72.84,259a1,1,0,0,1-1-.84l-2.08-13.31a1,1,0,0,1,2-.31l2.07,13.31A1,1,0,0,1,73,259Z"/><path class="cls-4" d="M2.34,205.67a1,1,0,0,1-.88-1.48L3.22,201a1,1,0,0,1,1.35-.39A1,1,0,0,1,5,202l-1.76,3.18A1,1,0,0,1,2.34,205.67Z"/><path class="cls-4" d="M261.5,73.62a1,1,0,0,1-.19-2l8.16-1.59a1,1,0,1,1,.39,2L261.7,73.6A.68.68,0,0,1,261.5,73.62Z"/><path class="cls-4" d="M269.09,209.39a1,1,0,0,1-1-.84l-1.38-8.46a1,1,0,0,1,2-.33l1.38,8.47a1,1,0,0,1-.82,1.15Z"/><path class="cls-4" d="M161.1,100.15a1,1,0,0,1-.82-.43,1,1,0,0,1,.24-1.4L163,96.57a1,1,0,0,1,1.15,1.65L161.67,100A1,1,0,0,1,161.1,100.15Z"/><path class="cls-4" d="M140.46,26.2a1,1,0,0,1-.88-.51L138,22.94a1,1,0,0,1,1.75-1l1.54,2.75a1,1,0,0,1-.87,1.49Z"/><path class="cls-4" d="M90.53,105.89a1,1,0,0,1-.53-.15,1,1,0,0,1-.32-1.37l4.33-7a1,1,0,0,1,1.37-.32,1,1,0,0,1,.33,1.38l-4.33,7A1,1,0,0,1,90.53,105.89Z"/><path class="cls-4" d="M220.78,250.52a1,1,0,0,1-.21-2l4-.89a1,1,0,0,1,.43,2l-4,.89Z"/><path class="cls-4" d="M108,139.1a1,1,0,0,1-.53-.15l-3.7-2.35a1,1,0,0,1-.3-1.38,1,1,0,0,1,1.38-.31l3.69,2.35a1,1,0,0,1-.54,1.84Z"/><path class="cls-4" d="M128.59,204.38a1,1,0,0,1-.27-2l9.59-2.64a1,1,0,1,1,.53,1.93l-9.59,2.64Z"/><path class="cls-4" d="M4.9,112.38a1,1,0,0,1-.29,0l-2.89-.89a1,1,0,1,1,.58-1.91l2.89.88a1,1,0,0,1-.29,2Z"/><path class="cls-4" d="M127.94,160.74a1,1,0,0,1-.93-.62l-3.49-8.46a1,1,0,1,1,1.84-.76l3.5,8.46a1,1,0,0,1-.54,1.3A.9.9,0,0,1,127.94,160.74Z"/><path class="cls-4" d="M269.22,180.76a1.13,1.13,0,0,1-.36-.06l-13.46-5.21a1,1,0,0,1,.72-1.87l13.46,5.21a1,1,0,0,1,.57,1.3A1,1,0,0,1,269.22,180.76Z"/><path class="cls-4" d="M225.77,106.07a1,1,0,0,1-.5-1.87l2.29-1.33a1,1,0,1,1,1,1.73l-2.3,1.33A1,1,0,0,1,225.77,106.07Z"/><path class="cls-4" d="M200.85,26.3a1,1,0,0,1-.86-.48l-3.29-5.45A1,1,0,0,1,197,19a1,1,0,0,1,1.38.33l3.29,5.45a1,1,0,0,1-.33,1.37A1,1,0,0,1,200.85,26.3Z"/><path class="cls-4" d="M1,153.44H.89a1,1,0,0,1-.88-1.1l.3-2.87a1,1,0,0,1,2,.21L2,152.54A1,1,0,0,1,1,153.44Z"/><path class="cls-4" d="M260.77,228.94a1,1,0,0,1-1-.87,1,1,0,0,1,.86-1.12l7.93-1a1,1,0,0,1,.26,2l-7.93,1.05Z"/><path class="cls-4" d="M68.56,138a1,1,0,0,1-.54-.16l-8.35-5.44a1,1,0,1,1,1.09-1.67l8.35,5.43a1,1,0,0,1-.55,1.84Z"/><path class="cls-4" d="M28,75.59a1,1,0,0,1-.37-.07l-9.68-3.86a1,1,0,0,1,.74-1.86l9.68,3.86A1,1,0,0,1,28,75.59Z"/><path class="cls-4" d="M3.21,92.54H3.07a1,1,0,0,1-.85-1.13l.55-3.75a1,1,0,1,1,2,.29L4.2,91.69A1,1,0,0,1,3.21,92.54Z"/><path class="cls-4" d="M55.68,269.91a.82.82,0,0,1-.26,0l-5.59-1.53a1,1,0,0,1,.53-1.93L56,268a1,1,0,0,1-.27,2Z"/><path class="cls-4" d="M269.36,270.57a1,1,0,0,1-.88-.53L267,267.27a1,1,0,0,1,1.76-.95l1.49,2.77a1,1,0,0,1-.41,1.36A1,1,0,0,1,269.36,270.57Z"/><path class="cls-4" d="M175.13,148.92a1,1,0,0,1-.67-.27l-7.51-6.9a1,1,0,0,1,1.35-1.47l7.51,6.9a1,1,0,0,1-.68,1.74Z"/><path class="cls-4" d="M69.09,205.82h-.15a1,1,0,0,1-.84-1.14l.76-5a1,1,0,1,1,2,.3l-.75,5A1,1,0,0,1,69.09,205.82Z"/><path class="cls-4" d="M213.69,187.24a1,1,0,0,1-.16-2l2.73-.43a1,1,0,0,1,.31,2l-2.73.43Z"/><path class="cls-4" d="M17.56,160.75a1,1,0,0,1-.77-1.64l2.15-2.62a1,1,0,1,1,1.55,1.27l-2.16,2.62A1,1,0,0,1,17.56,160.75Z"/><path class="cls-4" d="M268.73,53.92h-.11l-3.24-.34a1,1,0,1,1,.21-2l3.24.34a1,1,0,0,1-.1,2Z"/><path class="cls-4" d="M178.44,7.19a1,1,0,0,1-.9-.55L175.59,2.7A1,1,0,0,1,176,1.36a1,1,0,0,1,1.34.45l2,3.94a1,1,0,0,1-.45,1.34A1,1,0,0,1,178.44,7.19Z"/><path class="cls-4" d="M35.69,53.86a1.54,1.54,0,0,1-.3,0L24.31,50.43a1,1,0,1,1,.58-1.91L36,51.9a1,1,0,0,1-.29,2Z"/><path class="cls-4" d="M266.8,98.42a.85.85,0,0,1-.31-.06,1,1,0,0,1-.64-1.26l2.29-6.8a1,1,0,1,1,1.89.63l-2.28,6.8A1,1,0,0,1,266.8,98.42Z"/><path class="cls-4" d="M247.5,271.52a1,1,0,0,1-.54-.16,1,1,0,0,1-.31-1.38L250,264.8a1,1,0,1,1,1.68,1.07l-3.3,5.19A1,1,0,0,1,247.5,271.52Z"/><path class="cls-4" d="M142.72,223.44a1,1,0,0,1-.76-.34l-4-4.66a1,1,0,1,1,1.51-1.3l4,4.65a1,1,0,0,1-.11,1.41A1,1,0,0,1,142.72,223.44Z"/><path class="cls-4" d="M6.09,131.5a1,1,0,0,1-.11-2L18.48,128a1,1,0,0,1,1.11.87,1,1,0,0,1-.87,1.12l-12.5,1.51Z"/><path class="cls-4" d="M192.05,83.27a1,1,0,0,1-1-.82l-1.48-7.93a1,1,0,1,1,2-.37L193,82.09a1,1,0,0,1-.8,1.16Z"/><path class="cls-4" d="M88.19,182.85a1,1,0,0,1-.65-.24l-7.13-6.25a1,1,0,0,1-.09-1.41,1,1,0,0,1,1.41-.09l7.12,6.24a1,1,0,0,1-.66,1.75Z"/><path class="cls-4" d="M201.21,242.19a1,1,0,0,1-.41-.09,1,1,0,0,1-.51-1.32l3.44-7.66a1,1,0,0,1,1.83.82l-3.44,7.66A1,1,0,0,1,201.21,242.19Z"/><path class="cls-4" d="M157.45,54.72a1,1,0,0,1-1-.72l-3.81-13.2a1,1,0,1,1,1.92-.56l3.81,13.2a1,1,0,0,1-.68,1.24A.86.86,0,0,1,157.45,54.72Z"/><path class="cls-4" d="M62.85,162.88a1,1,0,0,1-.8-.4l-6-8a1,1,0,1,1,1.6-1.2l6,8a1,1,0,0,1-.2,1.4A1,1,0,0,1,62.85,162.88Z"/><path class="cls-4" d="M2,70.89a1,1,0,0,1-1-1l-.4-9.76a1,1,0,0,1,1-1,1,1,0,0,1,1,1L3,69.85a1,1,0,0,1-1,1Z"/><path class="cls-4" d="M178.8,169.06a1,1,0,0,1-.74-1.68l2.27-2.48a1,1,0,1,1,1.47,1.34l-2.26,2.49A1,1,0,0,1,178.8,169.06Z"/><path class="cls-4" d="M164.51,125.27a1,1,0,0,1-.33-.06,1,1,0,0,1-.61-1.27l3.14-9a1,1,0,1,1,1.89.67l-3.15,9A1,1,0,0,1,164.51,125.27Z"/><path class="cls-4" d="M226,166.84a1,1,0,0,1-.38-.07L213.86,162a1,1,0,0,1,.75-1.86l11.76,4.77a1,1,0,0,1,.55,1.31A1,1,0,0,1,226,166.84Z"/><path class="cls-4" d="M207,114.86a1,1,0,0,1-1-.86l-.91-6.67a1,1,0,0,1,2-.27l.9,6.67a1,1,0,0,1-.85,1.12Z"/><path class="cls-4" d="M53.41,82.69A1,1,0,0,1,53,82.6L42.76,78a1,1,0,1,1,.81-1.82l10.25,4.59a1,1,0,0,1,.51,1.32A1,1,0,0,1,53.41,82.69Z"/><path class="cls-4" d="M113.67,195.53l-.2,0a1,1,0,0,1-.78-1.18l2.41-11.94a1,1,0,0,1,2,.4l-2.41,11.94A1,1,0,0,1,113.67,195.53Z"/><path class="cls-4" d="M118,33a1,1,0,0,1-.35-1.94l4.48-1.65a1,1,0,0,1,1.28.6,1,1,0,0,1-.59,1.28l-4.48,1.64A.83.83,0,0,1,118,33Z"/><path class="cls-4" d="M117.65,97.88a1,1,0,0,1,0-2l11.13-.09a1,1,0,0,1,1,1,1,1,0,0,1-1,1l-11.13.09Z"/><path class="cls-4" d="M235.75,190.34a.86.86,0,0,1-.28,0,1,1,0,0,1-.69-1.24l3.89-13.41a1,1,0,1,1,1.92.56l-3.88,13.41A1,1,0,0,1,235.75,190.34Z"/><path class="cls-4" d="M222.12,229.51a1,1,0,0,1-.37-1.93l6.53-2.57a1,1,0,1,1,.73,1.87l-6.53,2.56A.92.92,0,0,1,222.12,229.51Z"/><path class="cls-4" d="M180.77,60.81a1,1,0,0,1-.83-.44l-2-2.89a1,1,0,0,1,1.66-1.12l2,2.89a1,1,0,0,1-.27,1.39A1,1,0,0,1,180.77,60.81Z"/><path class="cls-4" d="M104.51,82.27a1,1,0,0,1-.87-.51L98,71.76a1,1,0,1,1,1.74-1l5.64,10a1,1,0,0,1-.87,1.49Z"/><path class="cls-4" d="M157.07,164.07a1,1,0,0,1-.69-.28L150,157.66a1,1,0,0,1,1.39-1.44l6.34,6.13a1,1,0,0,1-.7,1.72Z"/><path class="cls-4" d="M183.37,201.88a1,1,0,0,1-.76-.36,1,1,0,0,1,.12-1.41l9-7.49a1,1,0,1,1,1.28,1.53l-9,7.5A1,1,0,0,1,183.37,201.88Z"/><path class="cls-4" d="M55.84,227.27a.62.62,0,0,1-.19,0l-4.3-.8a1,1,0,0,1,.36-2l4.31.81a1,1,0,0,1-.18,2Z"/><path class="cls-4" d="M103.92,250.8a.89.89,0,0,1-.47-.12L91.16,244a1,1,0,0,1,1-1.76l12.29,6.67a1,1,0,0,1-.48,1.87Z"/><path class="cls-4" d="M170.5,80.7a1,1,0,0,1-.64-.23l-6-5a1,1,0,1,1,1.28-1.53l6,5a1,1,0,0,1,.13,1.41A1,1,0,0,1,170.5,80.7Z"/><path class="cls-4" d="M271.14,139.3a1,1,0,0,1-.94-.66l-1-2.7a1,1,0,0,1,1.89-.67l1,2.7a1,1,0,0,1-.61,1.27A1,1,0,0,1,271.14,139.3Z"/><path class="cls-4" d="M51.89,39.86a1,1,0,0,1-1-.91l-1.39-15a1,1,0,1,1,2-.18l1.39,15a1,1,0,0,1-.9,1.09Z"/><path class="cls-4" d="M139.63,242.44a1,1,0,0,1-.3-.05l-2.41-.77a1,1,0,0,1,.6-1.9l2.42.77a1,1,0,0,1-.31,1.95Z"/><path class="cls-4" d="M125.37,76.59a1,1,0,0,1-.66-.25l-2.07-1.85A1,1,0,0,1,124,73L126,74.85a1,1,0,0,1-.67,1.74Z"/><path class="cls-4" d="M198.1,152.6a1,1,0,0,1-.83-.44l-3.66-5.42a1,1,0,1,1,1.66-1.12l3.66,5.42a1,1,0,0,1-.27,1.39A1,1,0,0,1,198.1,152.6Z"/><path class="cls-4" d="M266,37h-.06a1,1,0,0,1-.94-1.06l.8-13.61a1,1,0,1,1,2,.12L267,36A1,1,0,0,1,266,37Z"/><path class="cls-4" d="M158.56,21.23a1,1,0,0,1-.16-2l8.57-1.4a1,1,0,0,1,1.15.83,1,1,0,0,1-.83,1.14l-8.57,1.4Z"/><path class="cls-4" d="M184.54,225.76a1,1,0,0,1-.44-.1l-9.86-4.83a1,1,0,0,1-.45-1.34,1,1,0,0,1,1.33-.46l9.86,4.83a1,1,0,0,1,.46,1.34A1,1,0,0,1,184.54,225.76Z"/><path class="cls-4" d="M144.91,117.21a1,1,0,0,1-.76-.34l-5.45-6.27a1,1,0,0,1,1.51-1.31l5.45,6.27a1,1,0,0,1-.75,1.65Z"/><path class="cls-4" d="M198.37,175.79a1.07,1.07,0,0,1-.25,0,1,1,0,0,1-.72-1.22l.8-3.15a1,1,0,1,1,1.94.49l-.8,3.15A1,1,0,0,1,198.37,175.79Z"/><path class="cls-4" d="M50,208.36a1,1,0,0,1-1-.79l-3-13.75a1,1,0,1,1,1.95-.43l3,13.75a1,1,0,0,1-.76,1.19A.83.83,0,0,1,50,208.36Z"/><path class="cls-4" d="M111.48,269.71a1,1,0,0,1-.72-.31,1,1,0,0,1,0-1.41l5.84-5.53a1,1,0,0,1,1.41,0,1,1,0,0,1,0,1.42l-5.84,5.52A1,1,0,0,1,111.48,269.71Z"/><path class="cls-4" d="M45.12,121.81a1,1,0,0,1-.73-.31l-7.64-8.15a1,1,0,0,1,0-1.42,1,1,0,0,1,1.41,0l7.64,8.15a1,1,0,0,1,0,1.41A1,1,0,0,1,45.12,121.81Z"/><path class="cls-4" d="M224.51,205.92h-.09l-7.4-.62a1,1,0,0,1,.17-2l7.4.63a1,1,0,0,1-.08,2Z"/><path class="cls-4" d="M230.56,126.38a1,1,0,0,1-.26-2l7.26-2a1,1,0,1,1,.52,1.92l-7.26,2A.82.82,0,0,1,230.56,126.38Z"/><path class="cls-4" d="M224.47,270.58a1,1,0,0,1-.47-1.88l3.5-1.87a1,1,0,0,1,.94,1.77l-3.5,1.86A1,1,0,0,1,224.47,270.58Z"/><path class="cls-4" d="M247.23,85.89a1,1,0,0,1-.43-.1l-14.07-6.7a1,1,0,0,1-.48-1.33,1,1,0,0,1,1.34-.48L247.66,84a1,1,0,0,1-.43,1.9Z"/><path class="cls-4" d="M179.82,250.15a1,1,0,0,1-.6-.2,1,1,0,0,1-.19-1.4l3.7-4.86a1,1,0,1,1,1.59,1.21l-3.7,4.86A1,1,0,0,1,179.82,250.15Z"/><path class="cls-4" d="M227.05,58.29H227a1,1,0,0,1-.9-1.09l.62-6.76a1,1,0,1,1,2,.18L228,57.39A1,1,0,0,1,227.05,58.29Z"/><path class="cls-4" d="M206.21,56.23a1,1,0,0,1-.77-.36l-7.94-9.45A1,1,0,1,1,199,45.13L207,54.58a1,1,0,0,1-.76,1.65Z"/><path class="cls-4" d="M20.9,100.93a1,1,0,0,1-.48-1.87l8.19-4.55A1,1,0,0,1,30,94.9a1,1,0,0,1-.38,1.36l-8.2,4.55A1.07,1.07,0,0,1,20.9,100.93Z"/><path class="cls-4" d="M85.31,7.69a1,1,0,0,1-1-.84l-.89-5.39a1,1,0,0,1,2-.33l.9,5.39a1,1,0,0,1-.83,1.15Z"/><path class="cls-4" d="M41.74,173.7a1,1,0,0,1-.82-.42l-3.31-4.61a1,1,0,1,1,1.63-1.17l3.31,4.62a1,1,0,0,1-.23,1.4A1,1,0,0,1,41.74,173.7Z"/><path class="cls-4" d="M266.77,250.73a1,1,0,0,1-1-.85l-.7-4.52a1,1,0,0,1,2-.31l.69,4.53a1,1,0,0,1-.83,1.14Z"/><path class="cls-4" d="M119.84,56.62a1,1,0,0,1-.37-1.93l13.29-5.29a1,1,0,0,1,.74,1.86l-13.29,5.29A1.21,1.21,0,0,1,119.84,56.62Z"/><path class="cls-4" d="M163.81,237.52a1,1,0,0,1-.41-.09l-7.18-3.17a1,1,0,0,1,.81-1.83l7.18,3.17a1,1,0,0,1-.4,1.92Z"/><path class="cls-4" d="M244.11,216.54a1,1,0,0,1-.45-.11,1,1,0,0,1-.44-1.34L250,201.72a1,1,0,0,1,1.78.9L245,216A1,1,0,0,1,244.11,216.54Z"/><path class="cls-4" d="M80.37,271.31a1,1,0,0,1-1-.94,1,1,0,0,1,.94-1.06l12-.71a1,1,0,1,1,.12,2l-12,.72Z"/><path class="cls-4" d="M70.41,46.46a1,1,0,0,1-.28-2l11.4-3.45A1,1,0,1,1,82.11,43L70.7,46.42A.92.92,0,0,1,70.41,46.46Z"/><path class="cls-4" d="M3.76,20.92a1,1,0,0,1-1-.82L.06,4.8a1,1,0,1,1,2-.35l2.71,15.3a1,1,0,0,1-.81,1.16Z"/><path class="cls-4" d="M103.48,169.55a1,1,0,0,1-1-.84l-2.18-13.61a1,1,0,0,1,2-.32l2.18,13.62a1,1,0,0,1-.83,1.14Z"/><path class="cls-4" d="M190.27,127.21a.84.84,0,0,1-.31,0l-3.78-1.24a1,1,0,0,1,.62-1.9l3.78,1.24a1,1,0,0,1-.31,1.95Z"/><path class="cls-4" d="M78.26,67.4a1,1,0,0,1-.44-1.9l4.58-2.22a1,1,0,1,1,.88,1.8L78.7,67.3A1.17,1.17,0,0,1,78.26,67.4Z"/><path class="cls-4" d="M135.36,272h0a1,1,0,0,1-1-1l.38-14.69a1,1,0,0,1,1-1,1,1,0,0,1,1,1L136.36,271A1,1,0,0,1,135.36,272Z"/><path class="cls-4" d="M95.85,28.64a1,1,0,0,1-.65-.25l-2-1.73a1,1,0,1,1,1.32-1.5l2,1.72a1,1,0,0,1,.09,1.42A1,1,0,0,1,95.85,28.64Z"/><path class="cls-4" d="M28.23,272.32a1,1,0,0,1-.71-.29L25,269.47a1,1,0,0,1,0-1.42,1,1,0,0,1,1.41,0l2.57,2.56a1,1,0,0,1-.7,1.71Z"/><path class="cls-4" d="M94.79,201.18l-.18,0-5.16-.95a1,1,0,0,1,.36-2l5.16.95a1,1,0,0,1-.18,2Z"/><path class="cls-4" d="M202.87,269.62a1,1,0,0,1-1-.94l-.57-9.53a1,1,0,0,1,.94-1.06,1,1,0,0,1,1.06.94l.56,9.53a1,1,0,0,1-.93,1.06Z"/><path class="cls-4" d="M7,239.46a1,1,0,0,1-1-.69L1.87,226.38a1,1,0,1,1,1.89-.64l4.15,12.4a1,1,0,0,1-.63,1.26A.85.85,0,0,1,7,239.46Z"/><path class="cls-4" d="M29.05,193.87a1,1,0,0,1-.69-.28L17.25,183a1,1,0,0,1,0-1.42,1,1,0,0,1,1.41,0l11.12,10.55a1,1,0,0,1,0,1.41A1,1,0,0,1,29.05,193.87Z"/><path class="cls-4" d="M151.66,4.09a1,1,0,0,1-.86-.48,1,1,0,0,1,.35-1.38L154.67.14a1,1,0,1,1,1,1.72L152.17,4A1,1,0,0,1,151.66,4.09Z"/><path class="cls-4" d="M23.71,29.8a1,1,0,0,1-.17-2l7.8-1.39a1,1,0,0,1,.35,2l-7.8,1.39Z"/><path class="cls-4" d="M159.71,270a1,1,0,0,1-1-.87L157,256.41a1,1,0,0,1,.86-1.12,1,1,0,0,1,1.12.85l1.73,12.7a1,1,0,0,1-.86,1.13Z"/><path class="cls-4" d="M20.14,7a1,1,0,0,1-.86-.49L17,2.57a1,1,0,0,1,1.73-1L21,5.46a1,1,0,0,1-.35,1.37A1,1,0,0,1,20.14,7Z"/><path class="cls-4" d="M30.91,252.54a1,1,0,0,1-1-.8L27.58,240.1a1,1,0,1,1,2-.4l2.35,11.65a1,1,0,0,1-.78,1.17A.68.68,0,0,1,30.91,252.54Z"/><path class="cls-4" d="M99.82,224.22a.93.93,0,0,1-.45-.11,1,1,0,0,1-.44-1.34l2.17-4.35a1,1,0,0,1,1.34-.45,1,1,0,0,1,.45,1.34l-2.17,4.36A1,1,0,0,1,99.82,224.22Z"/><path class="cls-4" d="M148.53,91.44a1,1,0,0,1-.75-.34l-4.13-4.7a1,1,0,0,1,.09-1.41,1,1,0,0,1,1.41.09l4.13,4.7a1,1,0,0,1-.09,1.41A1,1,0,0,1,148.53,91.44Z"/><path class="cls-4" d="M144.89,69.93a1,1,0,0,1-.86-.48l-1.72-2.82a1,1,0,0,1,.33-1.37,1,1,0,0,1,1.38.33l1.72,2.82a1,1,0,0,1-.33,1.37A1,1,0,0,1,144.89,69.93Z"/><path class="cls-4" d="M225.17,31.18H225l-8.24-1.1a1,1,0,0,1-.86-1.12,1,1,0,0,1,1.12-.86l8.24,1.09a1,1,0,0,1,.86,1.13A1,1,0,0,1,225.17,31.18Z"/><path class="cls-4" d="M73.27,23.49a1,1,0,0,1-.91-.6L66.19,9A1,1,0,0,1,68,8.22l6.17,13.86a1,1,0,0,1-.51,1.32A1,1,0,0,1,73.27,23.49Z"/><path class="cls-4" d="M2.37,181.39a1,1,0,0,1-1-.92l-.61-7.63a1,1,0,1,1,2-.16l.61,7.63a1,1,0,0,1-.91,1.07Z"/><path class="cls-4" d="M76.15,92.61a1,1,0,0,1-.88-.54l-4.14-7.92a1,1,0,0,1,1.77-.92L77,91.14a1,1,0,0,1-.42,1.35A1,1,0,0,1,76.15,92.61Z"/><path class="cls-4" d="M173.4,39.25a1,1,0,0,1-.58-1.82l10.76-7.53a1,1,0,1,1,1.15,1.63L174,39.07A1,1,0,0,1,173.4,39.25Z"/><path class="cls-4" d="M32.08,220.69a1,1,0,0,1-.55-.16l-10.24-6.65a1,1,0,0,1,1.09-1.67l10.24,6.64a1,1,0,0,1-.54,1.84Z"/><path class="cls-4" d="M3.67,269.41H3.51a1,1,0,0,1-.83-1.15l1.81-11.5a1,1,0,0,1,2,.31l-1.8,11.5A1,1,0,0,1,3.67,269.41Z"/><path class="cls-4" d="M83.09,155.25a1,1,0,0,1-1-.74l-.78-2.79a1,1,0,0,1,.7-1.23,1,1,0,0,1,1.23.69l.78,2.8a1,1,0,0,1-.7,1.23A.84.84,0,0,1,83.09,155.25Z"/><path class="cls-4" d="M51.65,100.69A1,1,0,0,1,50.9,99l1.72-2a1,1,0,1,1,1.5,1.31l-1.71,2A1,1,0,0,1,51.65,100.69Z"/><path class="cls-4" d="M98.87,52.06a1,1,0,0,1-.5-.14A1,1,0,0,1,98,50.56L101.76,44a1,1,0,0,1,1.36-.37,1,1,0,0,1,.37,1.37l-3.75,6.53A1,1,0,0,1,98.87,52.06Z"/><path class="cls-4" d="M141.57,182.78a1,1,0,0,1-.85-.47l-3.12-4.94a1,1,0,0,1,1.7-1.06l3.11,4.93a1,1,0,0,1-.31,1.38A1,1,0,0,1,141.57,182.78Z"/><path class="cls-4" d="M255.24,6.22a1,1,0,0,1-.19-2l12.78-2.49a1,1,0,0,1,1.18.78,1,1,0,0,1-.79,1.18L255.44,6.2Z"/><path class="cls-4" d="M70.2,113.61l-.2,0-3.4-.68a1,1,0,0,1,.39-2l3.4.68a1,1,0,0,1-.19,2Z"/><path class="cls-4" d="M59.37,65a1,1,0,0,1-.86-.48L54.77,58.3a1,1,0,0,1,.35-1.37,1,1,0,0,1,1.37.35l3.74,6.24a1,1,0,0,1-.35,1.37A1,1,0,0,1,59.37,65Z"/><path class="cls-4" d="M5.7,42a1,1,0,0,1-.25,0l-4.2-1.09a1,1,0,0,1-.72-1.22,1,1,0,0,1,1.22-.72L6,40a1,1,0,0,1,.71,1.22A1,1,0,0,1,5.7,42Z"/><path class="cls-4" d="M268.14,157.76H268l-3.08-.35a1,1,0,0,1-.88-1.11,1,1,0,0,1,1.11-.88l3.08.36a1,1,0,0,1-.11,2Z"/><path class="cls-4" d="M253.64,141.23a1.07,1.07,0,0,1-.25,0l-4.74-1.2a1,1,0,0,1,.49-1.94l4.74,1.2a1,1,0,0,1-.24,2Z"/><path class="cls-4" d="M159.06,210.57a1,1,0,0,1-1-.9l-1-9.26a1,1,0,1,1,2-.21l1,9.26a1,1,0,0,1-.89,1.1Z"/><path class="cls-4" d="M214.61,89.36a1,1,0,0,1-1-.75l-3.5-14a1,1,0,0,1,.72-1.22,1,1,0,0,1,1.22.73l3.5,14a1,1,0,0,1-1,1.24Z"/><path class="cls-4" d="M183.27,269.39h0L179,269.3a1,1,0,0,1-1-1,1,1,0,0,1,1-1l4.29.09a1,1,0,0,1,0,2Z"/></g><g class="cls-3"><path class="cls-4" d="M118.83,509.7h0a1,1,0,0,1-1-1l.36-13.09a1,1,0,0,1,1-1,1,1,0,0,1,1,1l-.37,13.09A1,1,0,0,1,118.83,509.7Z"/><path class="cls-4" d="M87.09,402.55a1,1,0,0,1-1-.79l-1-4.42a1,1,0,0,1,2-.42l.95,4.42a1,1,0,0,1-.76,1.19Z"/><path class="cls-4" d="M52.06,522.28a1,1,0,0,1-.94-.66l-1.52-4.26a1,1,0,1,1,1.89-.67L53,521a1,1,0,0,1-.6,1.27A1,1,0,0,1,52.06,522.28Z"/><path class="cls-4" d="M170.27,458a1.12,1.12,0,0,1-.31,0l-8-2.63a1,1,0,0,1-.64-1.27,1,1,0,0,1,1.26-.63l8,2.63a1,1,0,0,1,.63,1.26A1,1,0,0,1,170.27,458Z"/><path class="cls-4" d="M241.76,427.54a.93.93,0,0,1-.57-.19l-3.57-2.54a1,1,0,0,1,1.16-1.62l3.57,2.53a1,1,0,0,1-.59,1.82Z"/><path class="cls-4" d="M271.32,389.47a1,1,0,0,1-.92-.6l-1.56-3.59a1,1,0,1,1,1.83-.79l1.57,3.59a1,1,0,0,1-.52,1.31A1,1,0,0,1,271.32,389.47Z"/><path class="cls-4" d="M200.28,277.52a1,1,0,0,1-.53-.15l-5.09-3.16a1,1,0,0,1-.33-1.37,1,1,0,0,1,1.38-.33l5.09,3.15a1,1,0,0,1-.52,1.86Z"/><path class="cls-4" d="M142.77,411.65a1,1,0,0,1-.9-.55,1,1,0,0,1,.45-1.35l3.79-1.88a1,1,0,1,1,.89,1.79l-3.79,1.88A.87.87,0,0,1,142.77,411.65Z"/><path class="cls-4" d="M34.23,421.52a1,1,0,0,1-.52-.15,1,1,0,0,1-.33-1.37l5.34-8.74a1,1,0,0,1,1.37-.34,1,1,0,0,1,.33,1.38L35.08,421A1,1,0,0,1,34.23,421.52Z"/><path class="cls-4" d="M35.59,277.54a1,1,0,0,1-.07-2l15-1.08a1,1,0,0,1,.14,2l-15,1.07Z"/><path class="cls-4" d="M248.87,379.93a1,1,0,0,1-.83-.44l-2.47-3.66a1,1,0,0,1,1.66-1.12l2.47,3.66a1,1,0,0,1-.27,1.39A1,1,0,0,1,248.87,379.93Z"/><path class="cls-4" d="M107.55,389.77a1,1,0,0,1-.73-.31,1,1,0,0,1,0-1.42l1.91-1.79a1,1,0,0,1,1.41,0,1,1,0,0,1,0,1.42l-1.91,1.79A1,1,0,0,1,107.55,389.77Z"/><path class="cls-4" d="M247.15,332.83a.85.85,0,0,1-.23,0,1,1,0,0,1-.74-1.21l.79-3.29a1,1,0,0,1,1.94.47l-.79,3.29A1,1,0,0,1,247.15,332.83Z"/><path class="cls-4" d="M64,455.14a1,1,0,0,1-.5-.13l-2.64-1.52a1,1,0,1,1,1-1.73l2.64,1.51a1,1,0,0,1-.49,1.87Z"/><path class="cls-4" d="M258.36,396.51h-.13l-2.65-.33a1,1,0,0,1,.25-2l2.65.33a1,1,0,0,1-.12,2Z"/><path class="cls-4" d="M219.1,412.53a1,1,0,0,1-.56-.17l-8-5.4a1,1,0,1,1,1.11-1.66l8,5.39a1,1,0,0,1,.27,1.39A1,1,0,0,1,219.1,412.53Z"/><path class="cls-4" d="M125.45,279a1,1,0,0,1-.46-1.89l6.7-3.47a1,1,0,0,1,.92,1.78l-6.7,3.47A1.07,1.07,0,0,1,125.45,279Z"/><path class="cls-4" d="M187.92,375.46a1,1,0,0,1-.38-.08L181.88,373a1,1,0,0,1,.77-1.85l5.66,2.35a1,1,0,0,1,.53,1.31A1,1,0,0,1,187.92,375.46Z"/><path class="cls-4" d="M109.94,287.2a1,1,0,0,1-.88-.54l-5.81-11.1a1,1,0,0,1,1.77-.93l5.81,11.11a1,1,0,0,1-.43,1.35A1,1,0,0,1,109.94,287.2Z"/><path class="cls-4" d="M125.49,402.31a1,1,0,0,1-1-1l-.16-3.67a1,1,0,0,1,1-1,1,1,0,0,1,1,.95l.16,3.67a1,1,0,0,1-.95,1Z"/><path class="cls-4" d="M216.08,279.22a1,1,0,0,1-.48-.13,1,1,0,0,1-.39-1.36l1.92-3.48a1,1,0,0,1,1.75,1L217,278.7A1,1,0,0,1,216.08,279.22Z"/><path class="cls-4" d="M244.14,520.92a1,1,0,0,1-1-.87l-1-7.59a1,1,0,0,1,2-.27l1,7.59a1,1,0,0,1-.85,1.13Z"/><path class="cls-4" d="M203,489.08a1,1,0,0,1-1-.75l-1.08-4.24a1,1,0,0,1,1.94-.49l1.08,4.23a1,1,0,0,1-.72,1.22A1.07,1.07,0,0,1,203,489.08Z"/><path class="cls-4" d="M73.52,503.86a1,1,0,0,1-.81-1.59l9-12.26a1,1,0,1,1,1.61,1.18l-8.94,12.26A1,1,0,0,1,73.52,503.86Z"/><path class="cls-4" d="M235.58,284.72h-.17a1,1,0,0,1-.82-1.16l1.35-7.82a1,1,0,1,1,2,.34l-1.35,7.82A1,1,0,0,1,235.58,284.72Z"/><path class="cls-4" d="M245.31,307.78a1,1,0,0,1-1-.82l-.83-4.59a1,1,0,0,1,.8-1.17,1,1,0,0,1,1.17.81l.83,4.59a1,1,0,0,1-.81,1.16Z"/><path class="cls-4" d="M72.84,531.31a1,1,0,0,1-1-.84l-2.08-13.31a1,1,0,0,1,2-.31l2.07,13.31A1,1,0,0,1,73,531.3Z"/><path class="cls-4" d="M2.34,478a1,1,0,0,1-.88-1.48l1.76-3.18a1,1,0,0,1,1.35-.39A1,1,0,0,1,5,474.3l-1.76,3.18A1,1,0,0,1,2.34,478Z"/><path class="cls-4" d="M261.5,345.94a1,1,0,0,1-.19-2l8.16-1.59a1,1,0,1,1,.39,2l-8.16,1.59A.68.68,0,0,1,261.5,345.94Z"/><path class="cls-4" d="M269.09,481.71a1,1,0,0,1-1-.84l-1.38-8.46a1,1,0,1,1,2-.33l1.38,8.47a1,1,0,0,1-.82,1.15Z"/><path class="cls-4" d="M161.1,372.47a1,1,0,0,1-.82-.43,1,1,0,0,1,.24-1.4l2.51-1.75a1,1,0,0,1,1.15,1.65l-2.51,1.75A1,1,0,0,1,161.1,372.47Z"/><path class="cls-4" d="M140.46,298.52a1,1,0,0,1-.88-.51L138,295.26a1,1,0,0,1,1.75-1l1.54,2.75a1,1,0,0,1-.87,1.49Z"/><path class="cls-4" d="M90.53,378.21a1,1,0,0,1-.53-.15,1,1,0,0,1-.32-1.37l4.33-7a1,1,0,0,1,1.37-.32,1,1,0,0,1,.33,1.38l-4.33,7A1,1,0,0,1,90.53,378.21Z"/><path class="cls-4" d="M220.78,522.84a1,1,0,0,1-.21-2l4-.89a1,1,0,0,1,.43,2l-4,.89Z"/><path class="cls-4" d="M108,411.42a1,1,0,0,1-.53-.15l-3.7-2.35a1,1,0,0,1-.3-1.38,1,1,0,0,1,1.38-.31l3.69,2.35a1,1,0,0,1-.54,1.84Z"/><path class="cls-4" d="M128.59,476.7a1,1,0,0,1-.27-2l9.59-2.64a1,1,0,1,1,.53,1.93l-9.59,2.64Z"/><path class="cls-4" d="M4.9,384.7a1,1,0,0,1-.29,0l-2.89-.89a1,1,0,1,1,.58-1.91l2.89.88a1,1,0,0,1-.29,2Z"/><path class="cls-4" d="M127.94,433.06a1,1,0,0,1-.93-.62L123.52,424a1,1,0,1,1,1.84-.76l3.5,8.46a1,1,0,0,1-.54,1.3A.9.9,0,0,1,127.94,433.06Z"/><path class="cls-4" d="M269.22,453.08a1.13,1.13,0,0,1-.36-.06l-13.46-5.21a1,1,0,0,1,.72-1.87l13.46,5.21a1,1,0,0,1,.57,1.3A1,1,0,0,1,269.22,453.08Z"/><path class="cls-4" d="M225.77,378.39a1,1,0,0,1-.5-1.87l2.29-1.33a1,1,0,1,1,1,1.73l-2.3,1.33A1,1,0,0,1,225.77,378.39Z"/><path class="cls-4" d="M200.85,298.62a1,1,0,0,1-.86-.48l-3.29-5.45a1,1,0,0,1,.33-1.37,1,1,0,0,1,1.38.33l3.29,5.45a1,1,0,0,1-.33,1.37A1,1,0,0,1,200.85,298.62Z"/><path class="cls-4" d="M1,425.76H.89a1,1,0,0,1-.88-1.1l.3-2.87a1,1,0,0,1,2,.21L2,424.86A1,1,0,0,1,1,425.76Z"/><path class="cls-4" d="M260.77,501.26a1,1,0,0,1-1-.87,1,1,0,0,1,.86-1.12l7.93-1a1,1,0,1,1,.26,2l-7.93,1.05Z"/><path class="cls-4" d="M68.56,410.33a1,1,0,0,1-.54-.16l-8.35-5.44a1,1,0,1,1,1.09-1.67l8.35,5.43a1,1,0,0,1-.55,1.84Z"/><path class="cls-4" d="M28,347.91a1,1,0,0,1-.37-.07L17.91,344a1,1,0,0,1,.74-1.86L28.33,346a1,1,0,0,1-.37,1.93Z"/><path class="cls-4" d="M3.21,364.86H3.07a1,1,0,0,1-.85-1.13L2.77,360a1,1,0,1,1,2,.29L4.2,364A1,1,0,0,1,3.21,364.86Z"/><path class="cls-4" d="M55.68,542.23a.82.82,0,0,1-.26,0l-5.59-1.53a1,1,0,0,1,.53-1.93L56,540.27a1,1,0,0,1-.27,2Z"/><path class="cls-4" d="M269.36,542.89a1,1,0,0,1-.88-.53L267,539.59a1,1,0,0,1,1.76-1l1.49,2.77a1,1,0,0,1-.41,1.36A1,1,0,0,1,269.36,542.89Z"/><path class="cls-4" d="M175.13,421.24a1,1,0,0,1-.67-.27l-7.51-6.9a1,1,0,1,1,1.35-1.47l7.51,6.9a1,1,0,0,1-.68,1.74Z"/><path class="cls-4" d="M69.09,478.14h-.15A1,1,0,0,1,68.1,477l.76-5a1,1,0,1,1,2,.3l-.75,5A1,1,0,0,1,69.09,478.14Z"/><path class="cls-4" d="M213.69,459.56a1,1,0,0,1-.16-2l2.73-.43a1,1,0,0,1,.31,2l-2.73.43Z"/><path class="cls-4" d="M17.56,433.07a1,1,0,0,1-.77-1.64l2.15-2.62a1,1,0,1,1,1.55,1.27l-2.16,2.62A1,1,0,0,1,17.56,433.07Z"/><path class="cls-4" d="M268.73,326.24h-.11l-3.24-.34a1,1,0,1,1,.21-2l3.24.34a1,1,0,0,1-.1,2Z"/><path class="cls-4" d="M178.44,279.51a1,1,0,0,1-.9-.55L175.59,275a1,1,0,0,1,.45-1.34,1,1,0,0,1,1.34.45l2,3.94a1,1,0,0,1-.45,1.34A1,1,0,0,1,178.44,279.51Z"/><path class="cls-4" d="M35.69,326.18a1.54,1.54,0,0,1-.3,0l-11.08-3.39a1,1,0,1,1,.58-1.91L36,324.22a1,1,0,0,1-.29,2Z"/><path class="cls-4" d="M266.8,370.74a.85.85,0,0,1-.31-.06,1,1,0,0,1-.64-1.26l2.29-6.8a1,1,0,0,1,1.89.63l-2.28,6.8A1,1,0,0,1,266.8,370.74Z"/><path class="cls-4" d="M247.5,543.84a1,1,0,0,1-.54-.16,1,1,0,0,1-.31-1.38l3.31-5.18a1,1,0,1,1,1.68,1.07l-3.3,5.19A1,1,0,0,1,247.5,543.84Z"/><path class="cls-4" d="M142.72,495.76a1,1,0,0,1-.76-.34l-4-4.66a1,1,0,1,1,1.51-1.3l4,4.65a1,1,0,0,1-.11,1.41A1,1,0,0,1,142.72,495.76Z"/><path class="cls-4" d="M6.09,403.82a1,1,0,0,1-.11-2l12.5-1.52a1,1,0,0,1,1.11.87,1,1,0,0,1-.87,1.12l-12.5,1.51Z"/><path class="cls-4" d="M192.05,355.59a1,1,0,0,1-1-.82l-1.48-7.93a1,1,0,1,1,2-.37l1.48,7.94a1,1,0,0,1-.8,1.16Z"/><path class="cls-4" d="M88.19,455.17a1,1,0,0,1-.65-.24l-7.13-6.25a1,1,0,0,1-.09-1.41,1,1,0,0,1,1.41-.09l7.12,6.24a1,1,0,0,1-.66,1.75Z"/><path class="cls-4" d="M201.21,514.51a1,1,0,0,1-.41-.09,1,1,0,0,1-.51-1.32l3.44-7.66a1,1,0,0,1,1.83.82l-3.44,7.66A1,1,0,0,1,201.21,514.51Z"/><path class="cls-4" d="M157.45,327a1,1,0,0,1-1-.72l-3.81-13.2a1,1,0,0,1,1.92-.56l3.81,13.2a1,1,0,0,1-.68,1.24A.86.86,0,0,1,157.45,327Z"/><path class="cls-4" d="M62.85,435.2a1,1,0,0,1-.8-.4l-6-8a1,1,0,0,1,1.6-1.2l6,8a1,1,0,0,1-.2,1.4A1,1,0,0,1,62.85,435.2Z"/><path class="cls-4" d="M2,343.21a1,1,0,0,1-1-1l-.4-9.76a1,1,0,0,1,1-1,1,1,0,0,1,1,1l.4,9.76a1,1,0,0,1-1,1Z"/><path class="cls-4" d="M178.8,441.38a1,1,0,0,1-.74-1.68l2.27-2.48a1,1,0,1,1,1.47,1.34l-2.26,2.49A1,1,0,0,1,178.8,441.38Z"/><path class="cls-4" d="M164.51,397.59a1,1,0,0,1-.33-.06,1,1,0,0,1-.61-1.27l3.14-9a1,1,0,1,1,1.89.67l-3.15,9A1,1,0,0,1,164.51,397.59Z"/><path class="cls-4" d="M226,439.16a1,1,0,0,1-.38-.07l-11.76-4.77a1,1,0,0,1,.75-1.86l11.76,4.77a1,1,0,0,1,.55,1.31A1,1,0,0,1,226,439.16Z"/><path class="cls-4" d="M207,387.18a1,1,0,0,1-1-.86l-.91-6.67a1,1,0,0,1,2-.27l.9,6.67a1,1,0,0,1-.85,1.12Z"/><path class="cls-4" d="M53.41,355a1,1,0,0,1-.41-.09l-10.24-4.59a1,1,0,1,1,.81-1.82l10.25,4.59a1,1,0,0,1,.51,1.32A1,1,0,0,1,53.41,355Z"/><path class="cls-4" d="M113.67,467.85l-.2,0a1,1,0,0,1-.78-1.18l2.41-11.94a1,1,0,1,1,2,.4l-2.41,11.94A1,1,0,0,1,113.67,467.85Z"/><path class="cls-4" d="M118,305.27a1,1,0,0,1-.35-1.94l4.48-1.65a1,1,0,0,1,1.28.6,1,1,0,0,1-.59,1.28l-4.48,1.64A.83.83,0,0,1,118,305.27Z"/><path class="cls-4" d="M117.65,370.2a1,1,0,0,1,0-2l11.13-.09a1,1,0,0,1,1,1,1,1,0,0,1-1,1l-11.13.09Z"/><path class="cls-4" d="M235.75,462.66a.86.86,0,0,1-.28,0,1,1,0,0,1-.69-1.24L238.67,448a1,1,0,1,1,1.92.56l-3.88,13.41A1,1,0,0,1,235.75,462.66Z"/><path class="cls-4" d="M222.12,501.83a1,1,0,0,1-.37-1.93l6.53-2.57a1,1,0,1,1,.73,1.87l-6.53,2.56A.92.92,0,0,1,222.12,501.83Z"/><path class="cls-4" d="M180.77,333.13a1,1,0,0,1-.83-.44l-2-2.89a1,1,0,0,1,1.66-1.12l2,2.89a1,1,0,0,1-.27,1.39A1,1,0,0,1,180.77,333.13Z"/><path class="cls-4" d="M104.51,354.59a1,1,0,0,1-.87-.51l-5.64-10a1,1,0,0,1,1.74-1l5.64,10a1,1,0,0,1-.87,1.49Z"/><path class="cls-4" d="M157.07,436.39a1,1,0,0,1-.69-.28L150,430a1,1,0,0,1,1.39-1.44l6.34,6.13a1,1,0,0,1-.7,1.72Z"/><path class="cls-4" d="M183.37,474.2a1,1,0,0,1-.76-.36,1,1,0,0,1,.12-1.41l9-7.49a1,1,0,1,1,1.28,1.53l-9,7.5A1,1,0,0,1,183.37,474.2Z"/><path class="cls-4" d="M55.84,499.59a.62.62,0,0,1-.19,0l-4.3-.8a1,1,0,0,1,.36-2l4.31.81a1,1,0,0,1-.18,2Z"/><path class="cls-4" d="M103.92,523.12a.89.89,0,0,1-.47-.12l-12.29-6.66a1,1,0,0,1,1-1.76l12.29,6.67a1,1,0,0,1-.48,1.87Z"/><path class="cls-4" d="M170.5,353a1,1,0,0,1-.64-.23l-6-5a1,1,0,1,1,1.28-1.53l6,5a1,1,0,0,1,.13,1.41A1,1,0,0,1,170.5,353Z"/><path class="cls-4" d="M271.14,411.62a1,1,0,0,1-.94-.66l-1-2.7a1,1,0,0,1,1.89-.67l1,2.7a1,1,0,0,1-.61,1.27A1,1,0,0,1,271.14,411.62Z"/><path class="cls-4" d="M51.89,312.18a1,1,0,0,1-1-.91l-1.39-15a1,1,0,1,1,2-.18l1.39,15a1,1,0,0,1-.9,1.09Z"/><path class="cls-4" d="M139.63,514.76a1,1,0,0,1-.3,0l-2.41-.77a1,1,0,0,1,.6-1.9l2.42.77a1,1,0,0,1-.31,2Z"/><path class="cls-4" d="M125.37,348.91a1,1,0,0,1-.66-.25l-2.07-1.85a1,1,0,0,1,1.34-1.49l2.06,1.85a1,1,0,0,1-.67,1.74Z"/><path class="cls-4" d="M198.1,424.92a1,1,0,0,1-.83-.44l-3.66-5.42a1,1,0,1,1,1.66-1.12l3.66,5.42a1,1,0,0,1-.27,1.39A1,1,0,0,1,198.1,424.92Z"/><path class="cls-4" d="M266,309.3h-.06a1,1,0,0,1-.94-1.06l.8-13.61a1,1,0,0,1,2,.12l-.8,13.61A1,1,0,0,1,266,309.3Z"/><path class="cls-4" d="M158.56,293.55a1,1,0,0,1-.16-2l8.57-1.4a1,1,0,0,1,1.15.83,1,1,0,0,1-.83,1.14l-8.57,1.4Z"/><path class="cls-4" d="M184.54,498.08a1,1,0,0,1-.44-.1l-9.86-4.83a1,1,0,0,1-.45-1.34,1,1,0,0,1,1.33-.46l9.86,4.83a1,1,0,0,1,.46,1.34A1,1,0,0,1,184.54,498.08Z"/><path class="cls-4" d="M144.91,389.53a1,1,0,0,1-.76-.34l-5.45-6.27a1,1,0,0,1,1.51-1.31l5.45,6.27a1,1,0,0,1-.75,1.65Z"/><path class="cls-4" d="M198.37,448.11a1.07,1.07,0,0,1-.25,0,1,1,0,0,1-.72-1.22l.8-3.15a1,1,0,1,1,1.94.49l-.8,3.15A1,1,0,0,1,198.37,448.11Z"/><path class="cls-4" d="M50,480.68a1,1,0,0,1-1-.79l-3-13.75a1,1,0,1,1,1.95-.43l3,13.75a1,1,0,0,1-.76,1.19A.83.83,0,0,1,50,480.68Z"/><path class="cls-4" d="M111.48,542a1,1,0,0,1-.72-.31,1,1,0,0,1,0-1.41l5.84-5.53a1,1,0,0,1,1.41,0,1,1,0,0,1,0,1.42l-5.84,5.52A1,1,0,0,1,111.48,542Z"/><path class="cls-4" d="M45.12,394.13a1,1,0,0,1-.73-.31l-7.64-8.15a1,1,0,0,1,0-1.42,1,1,0,0,1,1.41.05l7.64,8.15a1,1,0,0,1,0,1.41A1,1,0,0,1,45.12,394.13Z"/><path class="cls-4" d="M224.51,478.24h-.09l-7.4-.62a1,1,0,0,1,.17-2l7.4.63a1,1,0,0,1-.08,2Z"/><path class="cls-4" d="M230.56,398.7a1,1,0,0,1-.26-2l7.26-2a1,1,0,1,1,.52,1.92l-7.26,2A.82.82,0,0,1,230.56,398.7Z"/><path class="cls-4" d="M224.47,542.9A1,1,0,0,1,224,541l3.5-1.87a1,1,0,0,1,.94,1.77l-3.5,1.86A1,1,0,0,1,224.47,542.9Z"/><path class="cls-4" d="M247.23,358.21a1,1,0,0,1-.43-.1l-14.07-6.7a1,1,0,0,1-.48-1.33,1,1,0,0,1,1.34-.48l14.07,6.71a1,1,0,0,1-.43,1.9Z"/><path class="cls-4" d="M179.82,522.47a1,1,0,0,1-.6-.2,1,1,0,0,1-.19-1.4l3.7-4.86a1,1,0,0,1,1.59,1.21l-3.7,4.86A1,1,0,0,1,179.82,522.47Z"/><path class="cls-4" d="M227.05,330.61H227a1,1,0,0,1-.9-1.09l.62-6.76a1,1,0,1,1,2,.18l-.62,6.77A1,1,0,0,1,227.05,330.61Z"/><path class="cls-4" d="M206.21,328.55a1,1,0,0,1-.77-.36l-7.94-9.45a1,1,0,1,1,1.53-1.29L207,326.9a1,1,0,0,1-.76,1.65Z"/><path class="cls-4" d="M20.9,373.25a1,1,0,0,1-.48-1.87l8.19-4.55a1,1,0,0,1,1.36.39,1,1,0,0,1-.38,1.36l-8.2,4.55A1.07,1.07,0,0,1,20.9,373.25Z"/><path class="cls-4" d="M85.31,280a1,1,0,0,1-1-.84l-.89-5.39a1,1,0,1,1,2-.33l.9,5.39a1,1,0,0,1-.83,1.15Z"/><path class="cls-4" d="M41.74,446a1,1,0,0,1-.82-.42L37.61,441a1,1,0,1,1,1.63-1.17l3.31,4.62a1,1,0,0,1-.23,1.4A1,1,0,0,1,41.74,446Z"/><path class="cls-4" d="M266.77,523.05a1,1,0,0,1-1-.85l-.7-4.52a1,1,0,0,1,2-.31l.69,4.53a1,1,0,0,1-.83,1.14Z"/><path class="cls-4" d="M119.84,328.94a1,1,0,0,1-.37-1.93l13.29-5.29a1,1,0,0,1,.74,1.86l-13.29,5.29A1.21,1.21,0,0,1,119.84,328.94Z"/><path class="cls-4" d="M163.81,509.84a1,1,0,0,1-.41-.09l-7.18-3.17a1,1,0,0,1,.81-1.83l7.18,3.17a1,1,0,0,1-.4,1.92Z"/><path class="cls-4" d="M244.11,488.86a1,1,0,0,1-.45-.11,1,1,0,0,1-.44-1.34L250,474a1,1,0,1,1,1.78.9L245,488.31A1,1,0,0,1,244.11,488.86Z"/><path class="cls-4" d="M80.37,543.63a1,1,0,0,1-1-.94,1,1,0,0,1,.94-1.06l12-.71a1,1,0,1,1,.12,2l-12,.72Z"/><path class="cls-4" d="M70.41,318.78a1,1,0,0,1-.28-2l11.4-3.45a1,1,0,1,1,.58,1.92L70.7,318.74A.92.92,0,0,1,70.41,318.78Z"/><path class="cls-4" d="M3.76,293.24a1,1,0,0,1-1-.82L.06,277.12a1,1,0,1,1,2-.35l2.71,15.3a1,1,0,0,1-.81,1.16Z"/><path class="cls-4" d="M103.48,441.87a1,1,0,0,1-1-.84l-2.18-13.61a1,1,0,0,1,2-.32l2.18,13.62a1,1,0,0,1-.83,1.14Z"/><path class="cls-4" d="M190.27,399.53a.84.84,0,0,1-.31,0l-3.78-1.24a1,1,0,0,1,.62-1.9l3.78,1.24a1,1,0,0,1-.31,1.95Z"/><path class="cls-4" d="M78.26,339.72a1,1,0,0,1-.44-1.9l4.58-2.22a1,1,0,0,1,.88,1.8l-4.58,2.22A1.17,1.17,0,0,1,78.26,339.72Z"/><path class="cls-4" d="M135.36,544.34h0a1,1,0,0,1-1-1l.38-14.69a1,1,0,0,1,1-1,1,1,0,0,1,1,1l-.38,14.69A1,1,0,0,1,135.36,544.34Z"/><path class="cls-4" d="M95.85,301a1,1,0,0,1-.65-.25l-2-1.73a1,1,0,1,1,1.32-1.5l2,1.72a1,1,0,0,1,.09,1.42A1,1,0,0,1,95.85,301Z"/><path class="cls-4" d="M28.23,544.64a1,1,0,0,1-.71-.29L25,541.79a1,1,0,0,1,0-1.42,1,1,0,0,1,1.41,0l2.57,2.56a1,1,0,0,1-.7,1.71Z"/><path class="cls-4" d="M94.79,473.5l-.18,0-5.16-1a1,1,0,0,1,.36-2l5.16.95a1,1,0,0,1-.18,2Z"/><path class="cls-4" d="M202.87,541.94a1,1,0,0,1-1-.94l-.57-9.53a1,1,0,0,1,.94-1.06,1,1,0,0,1,1.06.94l.56,9.53a1,1,0,0,1-.93,1.06Z"/><path class="cls-4" d="M7,511.78a1,1,0,0,1-1-.69L1.87,498.7a1,1,0,1,1,1.89-.64l4.15,12.4a1,1,0,0,1-.63,1.26A.85.85,0,0,1,7,511.78Z"/><path class="cls-4" d="M29.05,466.19a1,1,0,0,1-.69-.28L17.25,455.36a1,1,0,0,1,0-1.42,1,1,0,0,1,1.41,0l11.12,10.55a1,1,0,0,1,0,1.41A1,1,0,0,1,29.05,466.19Z"/><path class="cls-4" d="M151.66,276.41a1,1,0,0,1-.86-.48,1,1,0,0,1,.35-1.38l3.52-2.09a1,1,0,0,1,1,1.72l-3.52,2.09A1,1,0,0,1,151.66,276.41Z"/><path class="cls-4" d="M23.71,302.12a1,1,0,0,1-.17-2l7.8-1.39a1,1,0,0,1,.35,2l-7.8,1.39Z"/><path class="cls-4" d="M159.71,542.3a1,1,0,0,1-1-.87L157,528.73a1,1,0,0,1,.86-1.12,1,1,0,0,1,1.12.85l1.73,12.7a1,1,0,0,1-.86,1.13Z"/><path class="cls-4" d="M20.14,279.29a1,1,0,0,1-.86-.49L17,274.89a1,1,0,0,1,1.73-1L21,277.78a1,1,0,0,1-.35,1.37A1,1,0,0,1,20.14,279.29Z"/><path class="cls-4" d="M30.91,524.86a1,1,0,0,1-1-.8l-2.35-11.64a1,1,0,1,1,2-.4l2.35,11.65a1,1,0,0,1-.78,1.17A.68.68,0,0,1,30.91,524.86Z"/><path class="cls-4" d="M99.82,496.54a.93.93,0,0,1-.45-.11,1,1,0,0,1-.44-1.34l2.17-4.35a1,1,0,0,1,1.34-.45,1,1,0,0,1,.45,1.34L100.72,496A1,1,0,0,1,99.82,496.54Z"/><path class="cls-4" d="M148.53,363.76a1,1,0,0,1-.75-.34l-4.13-4.7a1,1,0,0,1,.09-1.41,1,1,0,0,1,1.41.09l4.13,4.7a1,1,0,0,1-.09,1.41A1,1,0,0,1,148.53,363.76Z"/><path class="cls-4" d="M144.89,342.25a1,1,0,0,1-.86-.48L142.31,339a1,1,0,0,1,.33-1.37,1,1,0,0,1,1.38.33l1.72,2.82a1,1,0,0,1-.33,1.37A1,1,0,0,1,144.89,342.25Z"/><path class="cls-4" d="M225.17,303.5H225l-8.24-1.1a1,1,0,0,1-.86-1.12,1,1,0,0,1,1.12-.86l8.24,1.09a1,1,0,0,1,.86,1.13A1,1,0,0,1,225.17,303.5Z"/><path class="cls-4" d="M73.27,295.81a1,1,0,0,1-.91-.6l-6.17-13.85a1,1,0,0,1,1.83-.82l6.17,13.86a1,1,0,0,1-.51,1.32A1,1,0,0,1,73.27,295.81Z"/><path class="cls-4" d="M2.37,453.71a1,1,0,0,1-1-.92l-.61-7.63a1,1,0,1,1,2-.16l.61,7.63a1,1,0,0,1-.91,1.07Z"/><path class="cls-4" d="M76.15,364.93a1,1,0,0,1-.88-.54l-4.14-7.92a1,1,0,0,1,1.77-.92L77,363.46a1,1,0,0,1-.42,1.35A1,1,0,0,1,76.15,364.93Z"/><path class="cls-4" d="M173.4,311.57a1,1,0,0,1-.58-1.82l10.76-7.53a1,1,0,1,1,1.15,1.63L174,311.39A1,1,0,0,1,173.4,311.57Z"/><path class="cls-4" d="M32.08,493a1,1,0,0,1-.55-.16L21.29,486.2a1,1,0,1,1,1.09-1.67l10.24,6.64a1,1,0,0,1-.54,1.84Z"/><path class="cls-4" d="M3.67,541.73H3.51a1,1,0,0,1-.83-1.15l1.81-11.5a1,1,0,1,1,2,.31l-1.8,11.5A1,1,0,0,1,3.67,541.73Z"/><path class="cls-4" d="M83.09,427.57a1,1,0,0,1-1-.74L81.35,424a1,1,0,0,1,.7-1.23,1,1,0,0,1,1.23.69l.78,2.8a1,1,0,0,1-.7,1.23A.84.84,0,0,1,83.09,427.57Z"/><path class="cls-4" d="M51.65,373a1,1,0,0,1-.75-1.66l1.72-2a1,1,0,1,1,1.5,1.31l-1.71,2A1,1,0,0,1,51.65,373Z"/><path class="cls-4" d="M98.87,324.38a1,1,0,0,1-.5-.14,1,1,0,0,1-.36-1.36l3.75-6.54a1,1,0,0,1,1.36-.37,1,1,0,0,1,.37,1.37l-3.75,6.53A1,1,0,0,1,98.87,324.38Z"/><path class="cls-4" d="M141.57,455.1a1,1,0,0,1-.85-.47l-3.12-4.94a1,1,0,1,1,1.7-1.06l3.11,4.93a1,1,0,0,1-.31,1.38A1,1,0,0,1,141.57,455.1Z"/><path class="cls-4" d="M255.24,278.54a1,1,0,0,1-.19-2l12.78-2.49a1,1,0,0,1,1.18.78,1,1,0,0,1-.79,1.18l-12.78,2.5Z"/><path class="cls-4" d="M70.2,385.93l-.2,0-3.4-.68a1,1,0,0,1,.39-2l3.4.68a1,1,0,0,1-.19,2Z"/><path class="cls-4" d="M59.37,337.35a1,1,0,0,1-.86-.48l-3.74-6.25a1,1,0,0,1,.35-1.37,1,1,0,0,1,1.37.35l3.74,6.24a1,1,0,0,1-.35,1.37A1,1,0,0,1,59.37,337.35Z"/><path class="cls-4" d="M5.7,314.28a1,1,0,0,1-.25,0l-4.2-1.09a1,1,0,0,1-.72-1.22,1,1,0,0,1,1.22-.72L6,312.31a1,1,0,0,1,.71,1.22A1,1,0,0,1,5.7,314.28Z"/><path class="cls-4" d="M268.14,430.08H268l-3.08-.35a1,1,0,0,1-.88-1.11,1,1,0,0,1,1.11-.88l3.08.36a1,1,0,0,1-.11,2Z"/><path class="cls-4" d="M253.64,413.55a1.07,1.07,0,0,1-.25,0l-4.74-1.2a1,1,0,0,1,.49-1.94l4.74,1.2a1,1,0,0,1-.24,2Z"/><path class="cls-4" d="M159.06,482.89a1,1,0,0,1-1-.9l-1-9.26a1,1,0,1,1,2-.21l1,9.26a1,1,0,0,1-.89,1.1Z"/><path class="cls-4" d="M214.61,361.68a1,1,0,0,1-1-.75l-3.5-14a1,1,0,0,1,.72-1.22,1,1,0,0,1,1.22.73l3.5,14a1,1,0,0,1-1,1.24Z"/><path class="cls-4" d="M183.27,541.71h0l-4.29-.09a1,1,0,0,1-1-1,1,1,0,0,1,1-1l4.29.09a1,1,0,0,1,0,2Z"/></g><g class="cls-3"><path class="cls-4" d="M118.83,782h0a1,1,0,0,1-1-1l.36-13.09a1,1,0,0,1,1-1,1,1,0,0,1,1,1l-.37,13.09A1,1,0,0,1,118.83,782Z"/><path class="cls-4" d="M87.09,674.87a1,1,0,0,1-1-.79l-1-4.42a1,1,0,0,1,2-.42l.95,4.42a1,1,0,0,1-.76,1.19Z"/><path class="cls-4" d="M52.06,794.6a1,1,0,0,1-.94-.66l-1.52-4.26a1,1,0,1,1,1.89-.67L53,793.27a1,1,0,0,1-.6,1.27A1,1,0,0,1,52.06,794.6Z"/><path class="cls-4" d="M170.27,730.28a1.12,1.12,0,0,1-.31,0l-8-2.63a1,1,0,0,1-.64-1.27,1,1,0,0,1,1.26-.63l8,2.63a1,1,0,0,1,.63,1.26A1,1,0,0,1,170.27,730.28Z"/><path class="cls-4" d="M241.76,699.86a.93.93,0,0,1-.57-.19l-3.57-2.54a1,1,0,0,1,1.16-1.62l3.57,2.53a1,1,0,0,1-.59,1.82Z"/><path class="cls-4" d="M271.32,661.8a1,1,0,0,1-.92-.61l-1.56-3.59a1,1,0,1,1,1.83-.79l1.57,3.59a1,1,0,0,1-.52,1.31A1,1,0,0,1,271.32,661.8Z"/><path class="cls-4" d="M200.28,549.84a1,1,0,0,1-.53-.15l-5.09-3.16a1,1,0,0,1-.33-1.37,1,1,0,0,1,1.38-.33L200.8,548a1,1,0,0,1-.52,1.86Z"/><path class="cls-4" d="M142.77,684a1,1,0,0,1-.9-.55,1,1,0,0,1,.45-1.35l3.79-1.88A1,1,0,1,1,147,682l-3.79,1.88A.87.87,0,0,1,142.77,684Z"/><path class="cls-4" d="M34.23,693.84a1,1,0,0,1-.52-.15,1,1,0,0,1-.33-1.37l5.34-8.74a1,1,0,0,1,1.37-.34,1,1,0,0,1,.33,1.38l-5.34,8.74A1,1,0,0,1,34.23,693.84Z"/><path class="cls-4" d="M35.59,549.86a1,1,0,0,1-.07-2l15-1.08a1,1,0,0,1,.14,2l-15,1.07Z"/><path class="cls-4" d="M248.87,652.25a1,1,0,0,1-.83-.44l-2.47-3.66a1,1,0,1,1,1.66-1.12l2.47,3.66a1,1,0,0,1-.27,1.39A1,1,0,0,1,248.87,652.25Z"/><path class="cls-4" d="M107.55,662.09a1,1,0,0,1-.73-.31,1,1,0,0,1,0-1.42l1.91-1.79a1,1,0,0,1,1.41,0,1,1,0,0,1,0,1.42l-1.91,1.79A1,1,0,0,1,107.55,662.09Z"/><path class="cls-4" d="M247.15,605.15a.85.85,0,0,1-.23,0,1,1,0,0,1-.74-1.21l.79-3.29a1,1,0,0,1,1.94.47l-.79,3.29A1,1,0,0,1,247.15,605.15Z"/><path class="cls-4" d="M64,727.46a1,1,0,0,1-.5-.13l-2.64-1.52a1,1,0,1,1,1-1.73l2.64,1.51a1,1,0,0,1-.49,1.87Z"/><path class="cls-4" d="M258.36,668.83h-.13l-2.65-.33a1,1,0,0,1,.25-2l2.65.33a1,1,0,0,1-.12,2Z"/><path class="cls-4" d="M219.1,684.85a1,1,0,0,1-.56-.17l-8-5.4a1,1,0,1,1,1.11-1.66l8,5.39a1,1,0,0,1,.27,1.39A1,1,0,0,1,219.1,684.85Z"/><path class="cls-4" d="M125.45,551.33a1,1,0,0,1-.46-1.89l6.7-3.47a1,1,0,1,1,.92,1.78l-6.7,3.47A1.07,1.07,0,0,1,125.45,551.33Z"/><path class="cls-4" d="M187.92,647.78a1,1,0,0,1-.38-.08l-5.66-2.35a1,1,0,1,1,.77-1.85l5.66,2.35a1,1,0,0,1,.53,1.31A1,1,0,0,1,187.92,647.78Z"/><path class="cls-4" d="M109.94,559.52a1,1,0,0,1-.88-.54l-5.81-11.1A1,1,0,0,1,105,547l5.81,11.11a1,1,0,0,1-.43,1.35A1,1,0,0,1,109.94,559.52Z"/><path class="cls-4" d="M125.49,674.63a1,1,0,0,1-1-1l-.16-3.67a1,1,0,0,1,1-1,1,1,0,0,1,1,.95l.16,3.67a1,1,0,0,1-.95,1Z"/><path class="cls-4" d="M216.08,551.54a1,1,0,0,1-.48-.13,1,1,0,0,1-.39-1.36l1.92-3.48a1,1,0,0,1,1.75,1L217,551A1,1,0,0,1,216.08,551.54Z"/><path class="cls-4" d="M244.14,793.24a1,1,0,0,1-1-.87l-1-7.59a1,1,0,0,1,2-.27l1,7.59a1,1,0,0,1-.85,1.13Z"/><path class="cls-4" d="M203,761.4a1,1,0,0,1-1-.75l-1.08-4.24a1,1,0,0,1,1.94-.49l1.08,4.23a1,1,0,0,1-.72,1.22A1.07,1.07,0,0,1,203,761.4Z"/><path class="cls-4" d="M73.52,776.18a1,1,0,0,1-.81-1.59l9-12.26a1,1,0,1,1,1.61,1.18l-8.94,12.26A1,1,0,0,1,73.52,776.18Z"/><path class="cls-4" d="M235.58,557h-.17a1,1,0,0,1-.82-1.16l1.35-7.82a1,1,0,0,1,2,.34l-1.35,7.82A1,1,0,0,1,235.58,557Z"/><path class="cls-4" d="M245.31,580.1a1,1,0,0,1-1-.82l-.83-4.59a1,1,0,0,1,.8-1.16,1,1,0,0,1,1.17.8l.83,4.59a1,1,0,0,1-.81,1.16Z"/><path class="cls-4" d="M72.84,803.63a1,1,0,0,1-1-.84l-2.08-13.31a1,1,0,0,1,2-.31l2.07,13.31a1,1,0,0,1-.83,1.14Z"/><path class="cls-4" d="M2.34,750.31a1,1,0,0,1-.88-1.48l1.76-3.18a1,1,0,0,1,1.35-.39,1,1,0,0,1,.4,1.36L3.21,749.8A1,1,0,0,1,2.34,750.31Z"/><path class="cls-4" d="M261.5,618.26a1,1,0,0,1-.19-2l8.16-1.59a1,1,0,1,1,.39,2l-8.16,1.59A.68.68,0,0,1,261.5,618.26Z"/><path class="cls-4" d="M269.09,754a1,1,0,0,1-1-.84l-1.38-8.46a1,1,0,1,1,2-.33l1.38,8.47a1,1,0,0,1-.82,1.15Z"/><path class="cls-4" d="M161.1,644.79a1,1,0,0,1-.82-.43,1,1,0,0,1,.24-1.4l2.51-1.75a1,1,0,0,1,1.15,1.65l-2.51,1.75A1,1,0,0,1,161.1,644.79Z"/><path class="cls-4" d="M140.46,570.84a1,1,0,0,1-.88-.51L138,567.58a1,1,0,0,1,1.75-1l1.54,2.75a1,1,0,0,1-.87,1.49Z"/><path class="cls-4" d="M90.53,650.53a1,1,0,0,1-.53-.15,1,1,0,0,1-.32-1.37L94,642a1,1,0,0,1,1.37-.32,1,1,0,0,1,.33,1.38l-4.33,7A1,1,0,0,1,90.53,650.53Z"/><path class="cls-4" d="M220.78,795.16a1,1,0,0,1-.21-2l4-.89a1,1,0,0,1,.43,2l-4,.89Z"/><path class="cls-4" d="M108,683.74a1,1,0,0,1-.53-.15l-3.7-2.35a1,1,0,0,1-.3-1.38,1,1,0,0,1,1.38-.31l3.69,2.35a1,1,0,0,1-.54,1.84Z"/><path class="cls-4" d="M128.59,749a1,1,0,0,1-.27-2l9.59-2.64a1,1,0,1,1,.53,1.93L128.85,749Z"/><path class="cls-4" d="M4.9,657a1,1,0,0,1-.29,0l-2.89-.89a1,1,0,1,1,.58-1.91l2.89.89A1,1,0,0,1,4.9,657Z"/><path class="cls-4" d="M127.94,705.38a1,1,0,0,1-.93-.62l-3.49-8.46a1,1,0,1,1,1.84-.76l3.5,8.46a1,1,0,0,1-.54,1.3A.9.9,0,0,1,127.94,705.38Z"/><path class="cls-4" d="M269.22,725.4a1.13,1.13,0,0,1-.36-.06l-13.46-5.21a1,1,0,0,1,.72-1.87l13.46,5.21a1,1,0,0,1,.57,1.3A1,1,0,0,1,269.22,725.4Z"/><path class="cls-4" d="M225.77,650.71a1,1,0,0,1-.5-1.87l2.29-1.33a1,1,0,0,1,1,1.73l-2.3,1.33A1,1,0,0,1,225.77,650.71Z"/><path class="cls-4" d="M200.85,570.94a1,1,0,0,1-.86-.48L196.7,565a1,1,0,0,1,.33-1.37,1,1,0,0,1,1.38.33l3.29,5.45a1,1,0,0,1-.33,1.37A1,1,0,0,1,200.85,570.94Z"/><path class="cls-4" d="M1,698.08H.89A1,1,0,0,1,0,697l.3-2.87a1,1,0,0,1,2,.21L2,697.18A1,1,0,0,1,1,698.08Z"/><path class="cls-4" d="M260.77,773.58a1,1,0,0,1-1-.87,1,1,0,0,1,.86-1.12l7.93-1.05a1,1,0,1,1,.26,2l-7.93,1.05Z"/><path class="cls-4" d="M68.56,682.65a1,1,0,0,1-.54-.16l-8.35-5.44a1,1,0,1,1,1.09-1.67l8.35,5.43a1,1,0,0,1-.55,1.84Z"/><path class="cls-4" d="M28,620.23a1,1,0,0,1-.37-.07l-9.68-3.86a1,1,0,0,1,.74-1.86l9.68,3.86a1,1,0,0,1-.37,1.93Z"/><path class="cls-4" d="M3.21,637.18H3.07A1,1,0,0,1,2.22,636l.55-3.75a1,1,0,1,1,2,.29l-.55,3.75A1,1,0,0,1,3.21,637.18Z"/><path class="cls-4" d="M55.68,814.55a.82.82,0,0,1-.26,0L49.83,813a1,1,0,0,1,.53-1.93L56,812.59a1,1,0,0,1-.27,2Z"/><path class="cls-4" d="M269.36,815.21a1,1,0,0,1-.88-.53L267,811.91a1,1,0,0,1,1.76-.95l1.49,2.77a1,1,0,0,1-.41,1.36A1,1,0,0,1,269.36,815.21Z"/><path class="cls-4" d="M175.13,693.56a1,1,0,0,1-.67-.27l-7.51-6.9a1,1,0,0,1,1.35-1.47l7.51,6.9a1,1,0,0,1-.68,1.74Z"/><path class="cls-4" d="M69.09,750.46h-.15a1,1,0,0,1-.84-1.14l.76-5a1,1,0,1,1,2,.3l-.75,5A1,1,0,0,1,69.09,750.46Z"/><path class="cls-4" d="M213.69,731.88a1,1,0,0,1-.16-2l2.73-.43a1,1,0,0,1,.31,2l-2.73.43Z"/><path class="cls-4" d="M17.56,705.39a1,1,0,0,1-.77-1.64l2.15-2.62a1,1,0,0,1,1.55,1.27L18.33,705A1,1,0,0,1,17.56,705.39Z"/><path class="cls-4" d="M268.73,598.56h-.11l-3.24-.34a1,1,0,0,1,.21-2l3.24.34a1,1,0,0,1-.1,2Z"/><path class="cls-4" d="M178.44,551.83a1,1,0,0,1-.9-.55l-1.95-3.94A1,1,0,0,1,176,546a1,1,0,0,1,1.34.45l2,3.94a1,1,0,0,1-.45,1.34A1,1,0,0,1,178.44,551.83Z"/><path class="cls-4" d="M35.69,598.5a1,1,0,0,1-.3,0l-11.08-3.39a1,1,0,1,1,.58-1.91L36,596.54a1,1,0,0,1-.29,2Z"/><path class="cls-4" d="M266.8,643.06a1.12,1.12,0,0,1-.31,0,1,1,0,0,1-.64-1.27l2.29-6.8a1,1,0,1,1,1.89.63l-2.28,6.8A1,1,0,0,1,266.8,643.06Z"/><path class="cls-4" d="M247.5,816.16A1,1,0,0,1,247,816a1,1,0,0,1-.31-1.38l3.31-5.18a1,1,0,1,1,1.68,1.07l-3.3,5.19A1,1,0,0,1,247.5,816.16Z"/><path class="cls-4" d="M142.72,768.08a1,1,0,0,1-.76-.34l-4-4.66a1,1,0,1,1,1.51-1.3l4,4.65a1,1,0,0,1-.11,1.41A1,1,0,0,1,142.72,768.08Z"/><path class="cls-4" d="M6.09,676.14a1,1,0,0,1-.11-2l12.5-1.52a1,1,0,0,1,1.11.87,1,1,0,0,1-.87,1.12l-12.5,1.51Z"/><path class="cls-4" d="M192.05,627.91a1,1,0,0,1-1-.82l-1.48-7.93a1,1,0,1,1,2-.37l1.48,7.94a1,1,0,0,1-.8,1.16Z"/><path class="cls-4" d="M88.19,727.49a1,1,0,0,1-.65-.24L80.41,721a1,1,0,0,1-.09-1.41,1,1,0,0,1,1.41-.09l7.12,6.24a1,1,0,0,1-.66,1.75Z"/><path class="cls-4" d="M201.21,786.83a1,1,0,0,1-.41-.09,1,1,0,0,1-.51-1.32l3.44-7.66a1,1,0,0,1,1.83.82l-3.44,7.66A1,1,0,0,1,201.21,786.83Z"/><path class="cls-4" d="M157.45,599.36a1,1,0,0,1-1-.72l-3.81-13.2a1,1,0,1,1,1.92-.56l3.81,13.2a1,1,0,0,1-.68,1.24A.86.86,0,0,1,157.45,599.36Z"/><path class="cls-4" d="M62.85,707.52a1,1,0,0,1-.8-.4l-6-8a1,1,0,1,1,1.6-1.2l6,8a1,1,0,0,1-.2,1.4A1,1,0,0,1,62.85,707.52Z"/><path class="cls-4" d="M2,615.53a1,1,0,0,1-1-1l-.4-9.76a1,1,0,0,1,2-.08l.4,9.76a1,1,0,0,1-1,1Z"/><path class="cls-4" d="M178.8,713.7a1,1,0,0,1-.74-1.68l2.27-2.48a1,1,0,1,1,1.47,1.34l-2.26,2.49A1,1,0,0,1,178.8,713.7Z"/><path class="cls-4" d="M164.51,669.91a1,1,0,0,1-.33-.06,1,1,0,0,1-.61-1.27l3.14-9a1,1,0,0,1,1.89.67l-3.15,9A1,1,0,0,1,164.51,669.91Z"/><path class="cls-4" d="M226,711.48a1,1,0,0,1-.38-.07l-11.76-4.77a1,1,0,0,1,.75-1.86l11.76,4.77a1,1,0,0,1,.55,1.31A1,1,0,0,1,226,711.48Z"/><path class="cls-4" d="M207,659.5a1,1,0,0,1-1-.86l-.91-6.67a1,1,0,0,1,2-.27l.9,6.67a1,1,0,0,1-.85,1.12Z"/><path class="cls-4" d="M53.41,627.33a1,1,0,0,1-.41-.09l-10.24-4.59a1,1,0,1,1,.81-1.82l10.25,4.59a1,1,0,0,1,.51,1.32A1,1,0,0,1,53.41,627.33Z"/><path class="cls-4" d="M113.67,740.17l-.2,0a1,1,0,0,1-.78-1.18L115.1,727a1,1,0,0,1,2,.4l-2.41,11.94A1,1,0,0,1,113.67,740.17Z"/><path class="cls-4" d="M118,577.59a1,1,0,0,1-.35-1.94l4.48-1.65a1,1,0,0,1,1.28.6,1,1,0,0,1-.59,1.28l-4.48,1.65A1,1,0,0,1,118,577.59Z"/><path class="cls-4" d="M117.65,642.52a1,1,0,0,1,0-2l11.13-.09a1,1,0,0,1,1,1,1,1,0,0,1-1,1l-11.13.09Z"/><path class="cls-4" d="M235.75,735a.86.86,0,0,1-.28,0,1,1,0,0,1-.69-1.24l3.89-13.41a1,1,0,0,1,1.92.56l-3.88,13.41A1,1,0,0,1,235.75,735Z"/><path class="cls-4" d="M222.12,774.15a1,1,0,0,1-.37-1.93l6.53-2.57a1,1,0,1,1,.73,1.87l-6.53,2.56A.92.92,0,0,1,222.12,774.15Z"/><path class="cls-4" d="M180.77,605.45a1,1,0,0,1-.83-.44l-2-2.89a1,1,0,1,1,1.66-1.12l2,2.89a1,1,0,0,1-.27,1.39A1,1,0,0,1,180.77,605.45Z"/><path class="cls-4" d="M104.51,626.91a1,1,0,0,1-.87-.51L98,616.4a1,1,0,1,1,1.74-1l5.64,10a1,1,0,0,1-.87,1.49Z"/><path class="cls-4" d="M157.07,708.71a1,1,0,0,1-.69-.28L150,702.3a1,1,0,0,1,1.39-1.44l6.34,6.13a1,1,0,0,1-.7,1.72Z"/><path class="cls-4" d="M183.37,746.52a1,1,0,0,1-.76-.36,1,1,0,0,1,.12-1.41l9-7.49a1,1,0,1,1,1.28,1.53l-9,7.5A1,1,0,0,1,183.37,746.52Z"/><path class="cls-4" d="M55.84,771.91a.62.62,0,0,1-.19,0l-4.3-.8a1,1,0,0,1,.36-2l4.31.81a1,1,0,0,1-.18,2Z"/><path class="cls-4" d="M103.92,795.44a.89.89,0,0,1-.47-.12l-12.29-6.66a1,1,0,0,1,1-1.76l12.29,6.67a1,1,0,0,1-.48,1.87Z"/><path class="cls-4" d="M170.5,625.34a1,1,0,0,1-.64-.23l-6-5a1,1,0,1,1,1.28-1.53l6,5a1,1,0,0,1,.13,1.41A1,1,0,0,1,170.5,625.34Z"/><path class="cls-4" d="M271.14,683.94a1,1,0,0,1-.94-.66l-1-2.7a1,1,0,0,1,1.89-.67l1,2.7a1,1,0,0,1-.61,1.27A1,1,0,0,1,271.14,683.94Z"/><path class="cls-4" d="M51.89,584.5a1,1,0,0,1-1-.91l-1.39-15a1,1,0,1,1,2-.18l1.39,15a1,1,0,0,1-.9,1.09Z"/><path class="cls-4" d="M139.63,787.08a.79.79,0,0,1-.3-.05l-2.41-.77a1,1,0,1,1,.6-1.9l2.42.77a1,1,0,0,1-.31,2Z"/><path class="cls-4" d="M125.37,621.23a1,1,0,0,1-.66-.25l-2.07-1.85a1,1,0,0,1,1.34-1.49l2.06,1.85a1,1,0,0,1-.67,1.74Z"/><path class="cls-4" d="M198.1,697.24a1,1,0,0,1-.83-.44l-3.66-5.42a1,1,0,1,1,1.66-1.12l3.66,5.42a1,1,0,0,1-.27,1.39A1,1,0,0,1,198.1,697.24Z"/><path class="cls-4" d="M266,581.62h-.06a1,1,0,0,1-.94-1.06l.8-13.61a1,1,0,1,1,2,.12l-.8,13.61A1,1,0,0,1,266,581.62Z"/><path class="cls-4" d="M158.56,565.87a1,1,0,0,1-.16-2l8.57-1.4a1,1,0,0,1,1.15.83,1,1,0,0,1-.83,1.14l-8.57,1.4Z"/><path class="cls-4" d="M184.54,770.4a1,1,0,0,1-.44-.1l-9.86-4.83a1,1,0,0,1-.45-1.34,1,1,0,0,1,1.33-.46L185,768.5a1,1,0,0,1,.46,1.34A1,1,0,0,1,184.54,770.4Z"/><path class="cls-4" d="M144.91,661.85a1,1,0,0,1-.76-.34l-5.45-6.27a1,1,0,0,1,1.51-1.31l5.45,6.27a1,1,0,0,1-.75,1.65Z"/><path class="cls-4" d="M198.37,720.43a1.07,1.07,0,0,1-.25,0,1,1,0,0,1-.72-1.22l.8-3.15a1,1,0,1,1,1.94.49l-.8,3.15A1,1,0,0,1,198.37,720.43Z"/><path class="cls-4" d="M50,753a1,1,0,0,1-1-.79l-3-13.75A1,1,0,1,1,48,738l3,13.75a1,1,0,0,1-.76,1.19A.83.83,0,0,1,50,753Z"/><path class="cls-4" d="M111.48,814.35a1,1,0,0,1-.72-.31,1,1,0,0,1,0-1.41l5.84-5.53a1,1,0,0,1,1.41,0,1,1,0,0,1,0,1.42l-5.84,5.52A1,1,0,0,1,111.48,814.35Z"/><path class="cls-4" d="M45.12,666.45a1,1,0,0,1-.73-.31L36.75,658a1,1,0,0,1,0-1.42,1,1,0,0,1,1.41,0l7.64,8.15a1,1,0,0,1,0,1.41A1,1,0,0,1,45.12,666.45Z"/><path class="cls-4" d="M224.51,750.56h-.09l-7.4-.62a1,1,0,0,1,.17-2l7.4.63a1,1,0,0,1-.08,2Z"/><path class="cls-4" d="M230.56,671a1,1,0,0,1-.26-2l7.26-2a1,1,0,0,1,1.23.7,1,1,0,0,1-.71,1.23l-7.26,2A.82.82,0,0,1,230.56,671Z"/><path class="cls-4" d="M224.47,815.22a1,1,0,0,1-.47-1.88l3.5-1.87a1,1,0,0,1,.94,1.77l-3.5,1.86A1,1,0,0,1,224.47,815.22Z"/><path class="cls-4" d="M247.23,630.53a1,1,0,0,1-.43-.1l-14.07-6.7a1,1,0,0,1-.48-1.33,1,1,0,0,1,1.34-.48l14.07,6.71a1,1,0,0,1-.43,1.9Z"/><path class="cls-4" d="M179.82,794.79a1,1,0,0,1-.6-.2,1,1,0,0,1-.19-1.4l3.7-4.86a1,1,0,0,1,1.59,1.21l-3.7,4.86A1,1,0,0,1,179.82,794.79Z"/><path class="cls-4" d="M227.05,602.93H227a1,1,0,0,1-.9-1.09l.62-6.76a1,1,0,1,1,2,.18L228,602A1,1,0,0,1,227.05,602.93Z"/><path class="cls-4" d="M206.21,600.87a1,1,0,0,1-.77-.36l-7.94-9.45a1,1,0,0,1,1.53-1.29l7.94,9.45a1,1,0,0,1-.76,1.65Z"/><path class="cls-4" d="M20.9,645.57a1,1,0,0,1-.48-1.87l8.19-4.55a1,1,0,0,1,1.36.39,1,1,0,0,1-.38,1.36l-8.2,4.55A1.07,1.07,0,0,1,20.9,645.57Z"/><path class="cls-4" d="M85.31,552.33a1,1,0,0,1-1-.84l-.89-5.39a1,1,0,0,1,2-.33l.9,5.39a1,1,0,0,1-.83,1.15Z"/><path class="cls-4" d="M41.74,718.34a1,1,0,0,1-.82-.42l-3.31-4.61a1,1,0,1,1,1.63-1.17l3.31,4.62a1,1,0,0,1-.23,1.4A1,1,0,0,1,41.74,718.34Z"/><path class="cls-4" d="M266.77,795.37a1,1,0,0,1-1-.85l-.7-4.52a1,1,0,0,1,2-.31l.69,4.53a1,1,0,0,1-.83,1.14Z"/><path class="cls-4" d="M119.84,601.26a1,1,0,0,1-.37-1.93L132.76,594a1,1,0,0,1,.74,1.86l-13.29,5.29A1.21,1.21,0,0,1,119.84,601.26Z"/><path class="cls-4" d="M163.81,782.16a1,1,0,0,1-.41-.09l-7.18-3.17a1,1,0,0,1,.81-1.83l7.18,3.17a1,1,0,0,1-.4,1.92Z"/><path class="cls-4" d="M244.11,761.18a1,1,0,0,1-.45-.11,1,1,0,0,1-.44-1.34L250,746.36a1,1,0,1,1,1.78.9L245,760.63A1,1,0,0,1,244.11,761.18Z"/><path class="cls-4" d="M80.37,816a1,1,0,0,1-1-.94,1,1,0,0,1,.94-1.06l12-.71a1,1,0,1,1,.12,2l-12,.72Z"/><path class="cls-4" d="M70.41,591.1a1,1,0,0,1-.28-2l11.4-3.45a1,1,0,1,1,.58,1.92L70.7,591.06A.92.92,0,0,1,70.41,591.1Z"/><path class="cls-4" d="M3.76,565.56a1,1,0,0,1-1-.82L.06,549.44a1,1,0,1,1,2-.35l2.71,15.3a1,1,0,0,1-.81,1.16Z"/><path class="cls-4" d="M103.48,714.19a1,1,0,0,1-1-.84l-2.18-13.61a1,1,0,0,1,2-.32L104.47,713a1,1,0,0,1-.83,1.14Z"/><path class="cls-4" d="M190.27,671.85a.84.84,0,0,1-.31-.05l-3.78-1.24a1,1,0,0,1,.62-1.9l3.78,1.24a1,1,0,0,1-.31,2Z"/><path class="cls-4" d="M78.26,612a1,1,0,0,1-.44-1.9l4.58-2.22a1,1,0,1,1,.88,1.8l-4.58,2.22A1.17,1.17,0,0,1,78.26,612Z"/><path class="cls-4" d="M135.36,816.66h0a1,1,0,0,1-1-1l.38-14.69a1,1,0,0,1,1-1,1,1,0,0,1,1,1l-.38,14.69A1,1,0,0,1,135.36,816.66Z"/><path class="cls-4" d="M95.85,573.28a1,1,0,0,1-.65-.25l-2-1.73a1,1,0,0,1,1.32-1.5l2,1.73a1,1,0,0,1,.09,1.41A1,1,0,0,1,95.85,573.28Z"/><path class="cls-4" d="M28.23,817a1,1,0,0,1-.71-.29L25,814.11a1,1,0,0,1,0-1.42,1,1,0,0,1,1.41,0l2.57,2.56a1,1,0,0,1-.7,1.71Z"/><path class="cls-4" d="M94.79,745.82l-.18,0-5.16-.95a1,1,0,0,1,.36-2l5.16,1a1,1,0,0,1-.18,2Z"/><path class="cls-4" d="M202.87,814.26a1,1,0,0,1-1-.94l-.57-9.53a1,1,0,0,1,.94-1.06,1,1,0,0,1,1.06.94l.56,9.53a1,1,0,0,1-.93,1.06Z"/><path class="cls-4" d="M7,784.1a1,1,0,0,1-1-.69L1.87,771a1,1,0,1,1,1.89-.64l4.15,12.4A1,1,0,0,1,7.28,784,.85.85,0,0,1,7,784.1Z"/><path class="cls-4" d="M29.05,738.51a1,1,0,0,1-.69-.28L17.25,727.68a1,1,0,0,1,0-1.42,1,1,0,0,1,1.41,0l11.12,10.55a1,1,0,0,1,0,1.41A1,1,0,0,1,29.05,738.51Z"/><path class="cls-4" d="M151.66,548.73a1,1,0,0,1-.86-.48,1,1,0,0,1,.35-1.38l3.52-2.09a1,1,0,1,1,1,1.72l-3.52,2.09A1,1,0,0,1,151.66,548.73Z"/><path class="cls-4" d="M23.71,574.44a1,1,0,0,1-.17-2l7.8-1.39a1,1,0,1,1,.35,2l-7.8,1.39Z"/><path class="cls-4" d="M159.71,814.62a1,1,0,0,1-1-.87L157,801.05a1,1,0,0,1,.86-1.12,1,1,0,0,1,1.12.85l1.73,12.7a1,1,0,0,1-.86,1.13Z"/><path class="cls-4" d="M20.14,551.61a1,1,0,0,1-.86-.49L17,547.21a1,1,0,0,1,1.73-1L21,550.1a1,1,0,0,1-.35,1.37A.94.94,0,0,1,20.14,551.61Z"/><path class="cls-4" d="M30.91,797.18a1,1,0,0,1-1-.8l-2.35-11.64a1,1,0,0,1,2-.4L31.89,796a1,1,0,0,1-.78,1.17A.68.68,0,0,1,30.91,797.18Z"/><path class="cls-4" d="M99.82,768.86a.93.93,0,0,1-.45-.11,1,1,0,0,1-.44-1.34l2.17-4.35a1,1,0,0,1,1.34-.45,1,1,0,0,1,.45,1.34l-2.17,4.36A1,1,0,0,1,99.82,768.86Z"/><path class="cls-4" d="M148.53,636.08a1,1,0,0,1-.75-.34l-4.13-4.7a1,1,0,0,1,.09-1.41,1,1,0,0,1,1.41.09l4.13,4.7a1,1,0,0,1-.09,1.41A1,1,0,0,1,148.53,636.08Z"/><path class="cls-4" d="M144.89,614.57a1,1,0,0,1-.86-.48l-1.72-2.82a1,1,0,0,1,.33-1.37,1,1,0,0,1,1.38.33l1.72,2.82a1,1,0,0,1-.33,1.37A1,1,0,0,1,144.89,614.57Z"/><path class="cls-4" d="M225.17,575.82H225l-8.24-1.1a1,1,0,0,1-.86-1.12,1,1,0,0,1,1.12-.86l8.24,1.09a1,1,0,0,1,.86,1.13A1,1,0,0,1,225.17,575.82Z"/><path class="cls-4" d="M73.27,568.13a1,1,0,0,1-.91-.6l-6.17-13.85a1,1,0,0,1,1.83-.82l6.17,13.86a1,1,0,0,1-.51,1.32A1,1,0,0,1,73.27,568.13Z"/><path class="cls-4" d="M2.37,726a1,1,0,0,1-1-.92l-.61-7.63a1,1,0,1,1,2-.16L3.36,725A1,1,0,0,1,2.45,726Z"/><path class="cls-4" d="M76.15,637.25a1,1,0,0,1-.88-.54l-4.14-7.92a1,1,0,0,1,1.77-.92L77,635.78a1,1,0,0,1-.42,1.35A1,1,0,0,1,76.15,637.25Z"/><path class="cls-4" d="M173.4,583.89a1,1,0,0,1-.58-1.82l10.76-7.53a1,1,0,1,1,1.15,1.63L174,583.71A1,1,0,0,1,173.4,583.89Z"/><path class="cls-4" d="M32.08,765.33a1,1,0,0,1-.55-.16l-10.24-6.65a1,1,0,1,1,1.09-1.67l10.24,6.64a1,1,0,0,1-.54,1.84Z"/><path class="cls-4" d="M3.67,814.05H3.51a1,1,0,0,1-.83-1.15l1.81-11.5a1,1,0,1,1,2,.31l-1.8,11.5A1,1,0,0,1,3.67,814.05Z"/><path class="cls-4" d="M83.09,699.89a1,1,0,0,1-1-.74l-.78-2.79a1,1,0,0,1,.7-1.23,1,1,0,0,1,1.23.69l.78,2.8a1,1,0,0,1-.7,1.23A.84.84,0,0,1,83.09,699.89Z"/><path class="cls-4" d="M51.65,645.33a1,1,0,0,1-.75-1.66l1.72-1.95a1,1,0,1,1,1.5,1.31l-1.71,2A1,1,0,0,1,51.65,645.33Z"/><path class="cls-4" d="M98.87,596.7a1,1,0,0,1-.5-.14A1,1,0,0,1,98,595.2l3.75-6.54a1,1,0,0,1,1.36-.37,1,1,0,0,1,.37,1.37l-3.75,6.53A1,1,0,0,1,98.87,596.7Z"/><path class="cls-4" d="M141.57,727.42a1,1,0,0,1-.85-.47L137.6,722a1,1,0,0,1,1.7-1.06l3.11,4.93a1,1,0,0,1-.31,1.38A1,1,0,0,1,141.57,727.42Z"/><path class="cls-4" d="M255.24,550.86a1,1,0,0,1-1-.81,1,1,0,0,1,.79-1.18l12.78-2.49a1,1,0,0,1,1.18.78,1,1,0,0,1-.79,1.18l-12.78,2.5Z"/><path class="cls-4" d="M70.2,658.25l-.2,0-3.4-.68a1,1,0,0,1,.39-2l3.4.68a1,1,0,0,1-.19,2Z"/><path class="cls-4" d="M59.37,609.67a1,1,0,0,1-.86-.48l-3.74-6.25a1,1,0,0,1,.35-1.37,1,1,0,0,1,1.37.35l3.74,6.24a1,1,0,0,1-.35,1.37A1,1,0,0,1,59.37,609.67Z"/><path class="cls-4" d="M5.7,586.6a1,1,0,0,1-.25,0l-4.2-1.09a1,1,0,0,1-.72-1.22,1,1,0,0,1,1.22-.72L6,584.63a1,1,0,0,1,.71,1.22A1,1,0,0,1,5.7,586.6Z"/><path class="cls-4" d="M268.14,702.4H268l-3.08-.35a1,1,0,0,1,.23-2l3.08.36a1,1,0,0,1-.11,2Z"/><path class="cls-4" d="M253.64,685.87a1.07,1.07,0,0,1-.25,0l-4.74-1.2a1,1,0,0,1,.49-1.94l4.74,1.2a1,1,0,0,1-.24,2Z"/><path class="cls-4" d="M159.06,755.21a1,1,0,0,1-1-.9l-1-9.26a1,1,0,0,1,2-.21l1,9.26a1,1,0,0,1-.89,1.1Z"/><path class="cls-4" d="M214.61,634a1,1,0,0,1-1-.75l-3.5-14a1,1,0,0,1,.72-1.22,1,1,0,0,1,1.22.73l3.5,14a1,1,0,0,1-.73,1.21Z"/><path class="cls-4" d="M183.27,814h0l-4.29-.09a1,1,0,0,1-1-1,1,1,0,0,1,1-1l4.29.09a1,1,0,0,1,0,2Z"/></g><g class="cls-3"><path class="cls-4" d="M118.83,1054.34h0a1,1,0,0,1-1-1l.36-13.09a1,1,0,0,1,1-1,1,1,0,0,1,1,1l-.37,13.09A1,1,0,0,1,118.83,1054.34Z"/><path class="cls-4" d="M87.09,947.19a1,1,0,0,1-1-.79l-1-4.42a1,1,0,0,1,2-.42l.95,4.42a1,1,0,0,1-.76,1.19Z"/><path class="cls-4" d="M52.06,1066.92a1,1,0,0,1-.94-.66L49.6,1062a1,1,0,1,1,1.89-.67l1.51,4.26a1,1,0,0,1-.6,1.27A1,1,0,0,1,52.06,1066.92Z"/><path class="cls-4" d="M170.27,1002.6a1.12,1.12,0,0,1-.31-.05l-8-2.63a1,1,0,0,1-.64-1.27,1,1,0,0,1,1.26-.63l8,2.63a1,1,0,0,1,.63,1.26A1,1,0,0,1,170.27,1002.6Z"/><path class="cls-4" d="M241.76,972.18a.93.93,0,0,1-.57-.19l-3.57-2.54a1,1,0,0,1,1.16-1.62l3.57,2.53a1,1,0,0,1-.59,1.82Z"/><path class="cls-4" d="M271.32,934.12a1,1,0,0,1-.92-.61l-1.56-3.59a1,1,0,1,1,1.83-.79l1.57,3.59a1,1,0,0,1-.52,1.31A1,1,0,0,1,271.32,934.12Z"/><path class="cls-4" d="M200.28,822.16a1,1,0,0,1-.53-.15l-5.09-3.16a1,1,0,0,1-.33-1.37,1,1,0,0,1,1.38-.33l5.09,3.15a1,1,0,0,1-.52,1.86Z"/><path class="cls-4" d="M142.77,956.29a1,1,0,0,1-.9-.55,1,1,0,0,1,.45-1.35l3.79-1.88a1,1,0,1,1,.89,1.79l-3.79,1.88A.87.87,0,0,1,142.77,956.29Z"/><path class="cls-4" d="M34.23,966.16a1,1,0,0,1-.52-.15,1,1,0,0,1-.33-1.37l5.34-8.74a1,1,0,0,1,1.37-.34,1,1,0,0,1,.33,1.38l-5.34,8.74A1,1,0,0,1,34.23,966.16Z"/><path class="cls-4" d="M35.59,822.18a1,1,0,0,1-.07-2l15-1.08a1,1,0,0,1,.14,2l-15,1.07Z"/><path class="cls-4" d="M248.87,924.57a1,1,0,0,1-.83-.44l-2.47-3.66a1,1,0,1,1,1.66-1.12L249.7,923a1,1,0,0,1-.27,1.39A1,1,0,0,1,248.87,924.57Z"/><path class="cls-4" d="M107.55,934.41a1,1,0,0,1-.73-.31,1,1,0,0,1,0-1.42l1.91-1.79a1,1,0,0,1,1.41,0,1,1,0,0,1,0,1.42l-1.91,1.79A1,1,0,0,1,107.55,934.41Z"/><path class="cls-4" d="M247.15,877.47a.85.85,0,0,1-.23,0,1,1,0,0,1-.74-1.21l.79-3.29a1,1,0,0,1,1.94.47l-.79,3.29A1,1,0,0,1,247.15,877.47Z"/><path class="cls-4" d="M64,999.78a1,1,0,0,1-.5-.13l-2.64-1.52a1,1,0,1,1,1-1.73l2.64,1.51a1,1,0,0,1-.49,1.87Z"/><path class="cls-4" d="M258.36,941.15h-.13l-2.65-.33a1,1,0,0,1,.25-2l2.65.33a1,1,0,0,1-.12,2Z"/><path class="cls-4" d="M219.1,957.17a1,1,0,0,1-.56-.17l-8-5.4a1,1,0,1,1,1.11-1.66l8,5.39a1,1,0,0,1,.27,1.39A1,1,0,0,1,219.1,957.17Z"/><path class="cls-4" d="M125.45,823.65a1,1,0,0,1-.46-1.89l6.7-3.47a1,1,0,0,1,.92,1.78l-6.7,3.47A1.07,1.07,0,0,1,125.45,823.65Z"/><path class="cls-4" d="M187.92,920.1a1,1,0,0,1-.38-.08l-5.66-2.35a1,1,0,0,1,.77-1.85l5.66,2.35a1,1,0,0,1,.53,1.31A1,1,0,0,1,187.92,920.1Z"/><path class="cls-4" d="M109.94,831.84a1,1,0,0,1-.88-.54l-5.81-11.1a1,1,0,0,1,1.77-.93l5.81,11.11a1,1,0,0,1-.43,1.35A1,1,0,0,1,109.94,831.84Z"/><path class="cls-4" d="M125.49,947a1,1,0,0,1-1-1l-.16-3.67a1,1,0,0,1,1-1,1,1,0,0,1,1,1l.16,3.67a1,1,0,0,1-.95,1Z"/><path class="cls-4" d="M216.08,823.86a1,1,0,0,1-.48-.13,1,1,0,0,1-.39-1.36l1.92-3.48a1,1,0,0,1,1.75,1L217,823.34A1,1,0,0,1,216.08,823.86Z"/><path class="cls-4" d="M244.14,1065.56a1,1,0,0,1-1-.87l-1-7.59a1,1,0,0,1,2-.27l1,7.59a1,1,0,0,1-.85,1.13Z"/><path class="cls-4" d="M203,1033.72a1,1,0,0,1-1-.75l-1.08-4.24a1,1,0,0,1,1.94-.49l1.08,4.23a1,1,0,0,1-.72,1.22A1.07,1.07,0,0,1,203,1033.72Z"/><path class="cls-4" d="M73.52,1048.5a1,1,0,0,1-.81-1.59l9-12.26a1,1,0,1,1,1.61,1.18l-8.94,12.26A1,1,0,0,1,73.52,1048.5Z"/><path class="cls-4" d="M235.58,829.36h-.17a1,1,0,0,1-.82-1.16l1.35-7.82a1,1,0,0,1,2,.34l-1.35,7.82A1,1,0,0,1,235.58,829.36Z"/><path class="cls-4" d="M245.31,852.42a1,1,0,0,1-1-.82L243.5,847a1,1,0,0,1,.8-1.16,1,1,0,0,1,1.17.8l.83,4.59a1,1,0,0,1-.81,1.16Z"/><path class="cls-4" d="M72.84,1076a1,1,0,0,1-1-.84l-2.08-13.31a1,1,0,0,1,2-.31l2.07,13.31a1,1,0,0,1-.83,1.14Z"/><path class="cls-4" d="M2.34,1022.63a1,1,0,0,1-.88-1.48L3.22,1018a1,1,0,0,1,1.35-.39,1,1,0,0,1,.4,1.36l-1.76,3.18A1,1,0,0,1,2.34,1022.63Z"/><path class="cls-4" d="M261.5,890.58a1,1,0,0,1-.19-2l8.16-1.59a1,1,0,1,1,.39,2l-8.16,1.59A.68.68,0,0,1,261.5,890.58Z"/><path class="cls-4" d="M269.09,1026.35a1,1,0,0,1-1-.84l-1.38-8.46a1,1,0,1,1,2-.33l1.38,8.47a1,1,0,0,1-.82,1.15Z"/><path class="cls-4" d="M161.1,917.11a1,1,0,0,1-.82-.43,1,1,0,0,1,.24-1.4l2.51-1.75a1,1,0,1,1,1.15,1.65l-2.51,1.75A1,1,0,0,1,161.1,917.11Z"/><path class="cls-4" d="M140.46,843.16a1,1,0,0,1-.88-.51L138,839.9a1,1,0,0,1,1.75-1l1.54,2.75a1,1,0,0,1-.87,1.49Z"/><path class="cls-4" d="M90.53,922.85a1,1,0,0,1-.53-.15,1,1,0,0,1-.32-1.37l4.33-7a1,1,0,0,1,1.37-.32,1,1,0,0,1,.33,1.38l-4.33,7A1,1,0,0,1,90.53,922.85Z"/><path class="cls-4" d="M220.78,1067.48a1,1,0,0,1-.21-2l4-.89a1,1,0,0,1,.43,2l-4,.89Z"/><path class="cls-4" d="M108,956.06a1,1,0,0,1-.53-.15l-3.7-2.35a1,1,0,0,1-.3-1.38,1,1,0,0,1,1.38-.31l3.69,2.35a1,1,0,0,1-.54,1.84Z"/><path class="cls-4" d="M128.59,1021.34a1,1,0,0,1-.27-2l9.59-2.64a1,1,0,0,1,.53,1.93l-9.59,2.64Z"/><path class="cls-4" d="M4.9,929.34a1,1,0,0,1-.29,0l-2.89-.89a1,1,0,1,1,.58-1.91l2.89.89a1,1,0,0,1-.29,2Z"/><path class="cls-4" d="M127.94,977.7a1,1,0,0,1-.93-.62l-3.49-8.46a1,1,0,1,1,1.84-.76l3.5,8.46a1,1,0,0,1-.54,1.3A.9.9,0,0,1,127.94,977.7Z"/><path class="cls-4" d="M269.22,997.72a1.13,1.13,0,0,1-.36-.06l-13.46-5.21a1,1,0,0,1,.72-1.87l13.46,5.21a1,1,0,0,1,.57,1.3A1,1,0,0,1,269.22,997.72Z"/><path class="cls-4" d="M225.77,923a1,1,0,0,1-.5-1.87l2.29-1.33a1,1,0,0,1,1,1.73l-2.3,1.33A1,1,0,0,1,225.77,923Z"/><path class="cls-4" d="M200.85,843.26a1,1,0,0,1-.86-.48l-3.29-5.45A1,1,0,0,1,197,836a1,1,0,0,1,1.38.33l3.29,5.45a1,1,0,0,1-.33,1.37A1,1,0,0,1,200.85,843.26Z"/><path class="cls-4" d="M1,970.4H.89a1,1,0,0,1-.88-1.1l.3-2.87a1,1,0,1,1,2,.21L2,969.5A1,1,0,0,1,1,970.4Z"/><path class="cls-4" d="M260.77,1045.9a1,1,0,0,1-1-.87,1,1,0,0,1,.86-1.12l7.93-1.05a1,1,0,1,1,.26,2l-7.93,1.05Z"/><path class="cls-4" d="M68.56,955a1,1,0,0,1-.54-.16l-8.35-5.44a1,1,0,1,1,1.09-1.67l8.35,5.43a1,1,0,0,1-.55,1.84Z"/><path class="cls-4" d="M28,892.55a1,1,0,0,1-.37-.07l-9.68-3.86a1,1,0,0,1,.74-1.86l9.68,3.86a1,1,0,0,1-.37,1.93Z"/><path class="cls-4" d="M3.21,909.5H3.07a1,1,0,0,1-.85-1.13l.55-3.75a1,1,0,1,1,2,.29l-.55,3.75A1,1,0,0,1,3.21,909.5Z"/><path class="cls-4" d="M55.68,1086.87a.82.82,0,0,1-.26,0l-5.59-1.53a1,1,0,0,1,.53-1.93l5.59,1.54a1,1,0,0,1-.27,2Z"/><path class="cls-4" d="M269.36,1087.53a1,1,0,0,1-.88-.53l-1.49-2.77a1,1,0,0,1,1.76-1l1.49,2.77a1,1,0,0,1-.41,1.36A1,1,0,0,1,269.36,1087.53Z"/><path class="cls-4" d="M175.13,965.88a1,1,0,0,1-.67-.27l-7.51-6.9a1,1,0,0,1,1.35-1.47l7.51,6.9a1,1,0,0,1-.68,1.74Z"/><path class="cls-4" d="M69.09,1022.78h-.15a1,1,0,0,1-.84-1.14l.76-5a1,1,0,1,1,2,.3l-.75,5A1,1,0,0,1,69.09,1022.78Z"/><path class="cls-4" d="M213.69,1004.2a1,1,0,0,1-.16-2l2.73-.43a1,1,0,1,1,.31,2l-2.73.43Z"/><path class="cls-4" d="M17.56,977.71a1,1,0,0,1-.77-1.64l2.15-2.62a1,1,0,0,1,1.55,1.27l-2.16,2.62A1,1,0,0,1,17.56,977.71Z"/><path class="cls-4" d="M268.73,870.88h-.11l-3.24-.34a1,1,0,0,1,.21-2l3.24.34a1,1,0,0,1-.1,2Z"/><path class="cls-4" d="M178.44,824.15a1,1,0,0,1-.9-.55l-1.95-3.94a1,1,0,0,1,.45-1.34,1,1,0,0,1,1.34.45l2,3.94a1,1,0,0,1-.45,1.34A1,1,0,0,1,178.44,824.15Z"/><path class="cls-4" d="M35.69,870.82a1,1,0,0,1-.3,0l-11.08-3.39a1,1,0,1,1,.58-1.91L36,868.86a1,1,0,0,1-.29,2Z"/><path class="cls-4" d="M266.8,915.38a1.12,1.12,0,0,1-.31,0,1,1,0,0,1-.64-1.27l2.29-6.8a1,1,0,0,1,1.89.63l-2.28,6.8A1,1,0,0,1,266.8,915.38Z"/><path class="cls-4" d="M247.5,1088.48a1,1,0,0,1-.54-.16,1,1,0,0,1-.31-1.38l3.31-5.18a1,1,0,1,1,1.68,1.07l-3.3,5.19A1,1,0,0,1,247.5,1088.48Z"/><path class="cls-4" d="M142.72,1040.4a1,1,0,0,1-.76-.34l-4-4.66a1,1,0,1,1,1.51-1.3l4,4.65a1,1,0,0,1-.11,1.41A1,1,0,0,1,142.72,1040.4Z"/><path class="cls-4" d="M6.09,948.46a1,1,0,0,1-.11-2L18.48,945a1,1,0,0,1,1.11.87,1,1,0,0,1-.87,1.12l-12.5,1.51Z"/><path class="cls-4" d="M192.05,900.23a1,1,0,0,1-1-.82l-1.48-7.93a1,1,0,1,1,2-.37l1.48,7.94a1,1,0,0,1-.8,1.16Z"/><path class="cls-4" d="M88.19,999.81a1,1,0,0,1-.65-.24l-7.13-6.25a1,1,0,0,1-.09-1.41,1,1,0,0,1,1.41-.09l7.12,6.24a1,1,0,0,1-.66,1.75Z"/><path class="cls-4" d="M201.21,1059.15a1,1,0,0,1-.41-.09,1,1,0,0,1-.51-1.32l3.44-7.66a1,1,0,0,1,1.83.82l-3.44,7.66A1,1,0,0,1,201.21,1059.15Z"/><path class="cls-4" d="M157.45,871.68a1,1,0,0,1-1-.72l-3.81-13.2a1,1,0,0,1,1.92-.56l3.81,13.2a1,1,0,0,1-.68,1.24A.86.86,0,0,1,157.45,871.68Z"/><path class="cls-4" d="M62.85,979.84a1,1,0,0,1-.8-.4l-6-8a1,1,0,1,1,1.6-1.2l6,8a1,1,0,0,1-.2,1.4A1,1,0,0,1,62.85,979.84Z"/><path class="cls-4" d="M2,887.85a1,1,0,0,1-1-1l-.4-9.76a1,1,0,0,1,2-.08l.4,9.76a1,1,0,0,1-1,1Z"/><path class="cls-4" d="M178.8,986a1,1,0,0,1-.74-1.68l2.27-2.48a1,1,0,1,1,1.47,1.34l-2.26,2.49A1,1,0,0,1,178.8,986Z"/><path class="cls-4" d="M164.51,942.23a1,1,0,0,1-.33-.06,1,1,0,0,1-.61-1.27l3.14-9a1,1,0,1,1,1.89.67l-3.15,9A1,1,0,0,1,164.51,942.23Z"/><path class="cls-4" d="M226,983.8a1,1,0,0,1-.38-.07L213.86,979a1,1,0,0,1,.75-1.86l11.76,4.77a1,1,0,0,1,.55,1.31A1,1,0,0,1,226,983.8Z"/><path class="cls-4" d="M207,931.82a1,1,0,0,1-1-.86l-.91-6.67a1,1,0,0,1,2-.27l.9,6.67a1,1,0,0,1-.85,1.12Z"/><path class="cls-4" d="M53.41,899.65a1,1,0,0,1-.41-.09L42.76,895a1,1,0,1,1,.81-1.82l10.25,4.59a1,1,0,0,1,.51,1.32A1,1,0,0,1,53.41,899.65Z"/><path class="cls-4" d="M113.67,1012.49l-.2,0a1,1,0,0,1-.78-1.18l2.41-11.94a1,1,0,0,1,2,.4l-2.41,11.94A1,1,0,0,1,113.67,1012.49Z"/><path class="cls-4" d="M118,849.91a1,1,0,0,1-.35-1.94l4.48-1.65a1,1,0,0,1,1.28.6,1,1,0,0,1-.59,1.28l-4.48,1.65A1,1,0,0,1,118,849.91Z"/><path class="cls-4" d="M117.65,914.84a1,1,0,0,1,0-2l11.13-.09a1,1,0,0,1,1,1,1,1,0,0,1-1,1l-11.13.09Z"/><path class="cls-4" d="M235.75,1007.3a.86.86,0,0,1-.28,0,1,1,0,0,1-.69-1.24l3.89-13.41a1,1,0,0,1,1.92.56l-3.88,13.41A1,1,0,0,1,235.75,1007.3Z"/><path class="cls-4" d="M222.12,1046.47a1,1,0,0,1-.37-1.93l6.53-2.57a1,1,0,1,1,.73,1.87l-6.53,2.56A.92.92,0,0,1,222.12,1046.47Z"/><path class="cls-4" d="M180.77,877.77a1,1,0,0,1-.83-.44l-2-2.89a1,1,0,1,1,1.66-1.12l2,2.89a1,1,0,0,1-.27,1.39A1,1,0,0,1,180.77,877.77Z"/><path class="cls-4" d="M104.51,899.23a1,1,0,0,1-.87-.51l-5.64-10a1,1,0,1,1,1.74-1l5.64,10a1,1,0,0,1-.87,1.49Z"/><path class="cls-4" d="M157.07,981a1,1,0,0,1-.69-.28L150,974.62a1,1,0,0,1,1.39-1.44l6.34,6.13a1,1,0,0,1-.7,1.72Z"/><path class="cls-4" d="M183.37,1018.84a1,1,0,0,1-.76-.36,1,1,0,0,1,.12-1.41l9-7.49a1,1,0,1,1,1.28,1.53l-9,7.5A1,1,0,0,1,183.37,1018.84Z"/><path class="cls-4" d="M55.84,1044.23a.62.62,0,0,1-.19,0l-4.3-.8a1,1,0,0,1,.36-2l4.31.81a1,1,0,0,1-.18,2Z"/><path class="cls-4" d="M103.92,1067.76a.89.89,0,0,1-.47-.12L91.16,1061a1,1,0,0,1,1-1.76l12.29,6.67a1,1,0,0,1-.48,1.87Z"/><path class="cls-4" d="M170.5,897.66a1,1,0,0,1-.64-.23l-6-5a1,1,0,1,1,1.28-1.53l6,5a1,1,0,0,1,.13,1.41A1,1,0,0,1,170.5,897.66Z"/><path class="cls-4" d="M271.14,956.26a1,1,0,0,1-.94-.66l-1-2.7a1,1,0,0,1,1.89-.67l1,2.7a1,1,0,0,1-.61,1.27A1,1,0,0,1,271.14,956.26Z"/><path class="cls-4" d="M51.89,856.82a1,1,0,0,1-1-.91l-1.39-15a1,1,0,1,1,2-.18l1.39,15a1,1,0,0,1-.9,1.09Z"/><path class="cls-4" d="M139.63,1059.4a.79.79,0,0,1-.3-.05l-2.41-.77a1,1,0,1,1,.6-1.9l2.42.77a1,1,0,0,1-.31,2Z"/><path class="cls-4" d="M125.37,893.55a1,1,0,0,1-.66-.25l-2.07-1.85A1,1,0,0,1,124,890l2.06,1.85a1,1,0,0,1-.67,1.74Z"/><path class="cls-4" d="M198.1,969.56a1,1,0,0,1-.83-.44l-3.66-5.42a1,1,0,1,1,1.66-1.12l3.66,5.42a1,1,0,0,1-.27,1.39A1,1,0,0,1,198.1,969.56Z"/><path class="cls-4" d="M266,853.94h-.06a1,1,0,0,1-.94-1.06l.8-13.61a1,1,0,0,1,2,.12L267,853A1,1,0,0,1,266,853.94Z"/><path class="cls-4" d="M158.56,838.19a1,1,0,0,1-.16-2l8.57-1.4a1,1,0,0,1,1.15.83,1,1,0,0,1-.83,1.14l-8.57,1.4Z"/><path class="cls-4" d="M184.54,1042.72a1,1,0,0,1-.44-.1l-9.86-4.83a1,1,0,0,1-.45-1.34,1,1,0,0,1,1.33-.46l9.86,4.83a1,1,0,0,1,.46,1.34A1,1,0,0,1,184.54,1042.72Z"/><path class="cls-4" d="M144.91,934.17a1,1,0,0,1-.76-.34l-5.45-6.27a1,1,0,0,1,1.51-1.31l5.45,6.27a1,1,0,0,1-.75,1.65Z"/><path class="cls-4" d="M198.37,992.75a1.07,1.07,0,0,1-.25,0,1,1,0,0,1-.72-1.22l.8-3.15a1,1,0,1,1,1.94.49l-.8,3.15A1,1,0,0,1,198.37,992.75Z"/><path class="cls-4" d="M50,1025.32a1,1,0,0,1-1-.79l-3-13.75a1,1,0,1,1,1.95-.43l3,13.75a1,1,0,0,1-.76,1.19A.83.83,0,0,1,50,1025.32Z"/><path class="cls-4" d="M111.48,1086.67a1,1,0,0,1-.72-.31,1,1,0,0,1,0-1.41l5.84-5.53a1,1,0,0,1,1.41,0,1,1,0,0,1,0,1.42l-5.84,5.52A1,1,0,0,1,111.48,1086.67Z"/><path class="cls-4" d="M45.12,938.77a1,1,0,0,1-.73-.31l-7.64-8.15a1,1,0,0,1,0-1.42,1,1,0,0,1,1.41.05l7.64,8.15a1,1,0,0,1,0,1.41A1,1,0,0,1,45.12,938.77Z"/><path class="cls-4" d="M224.51,1022.88h-.09l-7.4-.62a1,1,0,0,1,.17-2l7.4.63a1,1,0,0,1-.08,2Z"/><path class="cls-4" d="M230.56,943.34a1,1,0,0,1-.26-2l7.26-2a1,1,0,0,1,1.23.7,1,1,0,0,1-.71,1.23l-7.26,2A.82.82,0,0,1,230.56,943.34Z"/><path class="cls-4" d="M224.47,1087.54a1,1,0,0,1-.47-1.88l3.5-1.87a1,1,0,0,1,.94,1.77l-3.5,1.86A1,1,0,0,1,224.47,1087.54Z"/><path class="cls-4" d="M247.23,902.85a1,1,0,0,1-.43-.1l-14.07-6.7a1,1,0,0,1-.48-1.33,1,1,0,0,1,1.34-.48L247.66,901a1,1,0,0,1-.43,1.9Z"/><path class="cls-4" d="M179.82,1067.11a1,1,0,0,1-.6-.2,1,1,0,0,1-.19-1.4l3.7-4.86a1,1,0,1,1,1.59,1.21l-3.7,4.86A1,1,0,0,1,179.82,1067.11Z"/><path class="cls-4" d="M227.05,875.25H227a1,1,0,0,1-.9-1.09l.62-6.76a1,1,0,1,1,2,.18l-.62,6.77A1,1,0,0,1,227.05,875.25Z"/><path class="cls-4" d="M206.21,873.19a1,1,0,0,1-.77-.36l-7.94-9.45a1,1,0,0,1,1.53-1.29l7.94,9.45a1,1,0,0,1-.76,1.65Z"/><path class="cls-4" d="M20.9,917.89a1,1,0,0,1-.48-1.87l8.19-4.55a1,1,0,0,1,1.36.39,1,1,0,0,1-.38,1.36l-8.2,4.55A1.07,1.07,0,0,1,20.9,917.89Z"/><path class="cls-4" d="M85.31,824.65a1,1,0,0,1-1-.84l-.89-5.39a1,1,0,1,1,2-.33l.9,5.39a1,1,0,0,1-.83,1.15Z"/><path class="cls-4" d="M41.74,990.66a1,1,0,0,1-.82-.42l-3.31-4.61a1,1,0,0,1,1.63-1.17l3.31,4.62a1,1,0,0,1-.23,1.4A1,1,0,0,1,41.74,990.66Z"/><path class="cls-4" d="M266.77,1067.69a1,1,0,0,1-1-.85l-.7-4.52a1,1,0,0,1,2-.31l.69,4.53a1,1,0,0,1-.83,1.14Z"/><path class="cls-4" d="M119.84,873.58a1,1,0,0,1-.37-1.93l13.29-5.29a1,1,0,0,1,.74,1.86l-13.29,5.29A1.21,1.21,0,0,1,119.84,873.58Z"/><path class="cls-4" d="M163.81,1054.48a1,1,0,0,1-.41-.09l-7.18-3.17a1,1,0,1,1,.81-1.83l7.18,3.17a1,1,0,0,1-.4,1.92Z"/><path class="cls-4" d="M244.11,1033.5a1,1,0,0,1-.45-.11,1,1,0,0,1-.44-1.34l6.79-13.37a1,1,0,1,1,1.78.9L245,1033A1,1,0,0,1,244.11,1033.5Z"/><path class="cls-4" d="M80.37,1088.27a1,1,0,0,1-1-.94,1,1,0,0,1,.94-1.06l12-.71a1,1,0,1,1,.12,2l-12,.72Z"/><path class="cls-4" d="M70.41,863.42a1,1,0,0,1-.28-2L81.53,858a1,1,0,1,1,.58,1.92L70.7,863.38A.92.92,0,0,1,70.41,863.42Z"/><path class="cls-4" d="M3.76,837.88a1,1,0,0,1-1-.82L.06,821.76a1,1,0,1,1,2-.35l2.71,15.3a1,1,0,0,1-.81,1.16Z"/><path class="cls-4" d="M103.48,986.51a1,1,0,0,1-1-.84l-2.18-13.61a1,1,0,0,1,2-.32l2.18,13.62a1,1,0,0,1-.83,1.14Z"/><path class="cls-4" d="M190.27,944.17a.84.84,0,0,1-.31,0l-3.78-1.24a1,1,0,1,1,.62-1.9l3.78,1.24a1,1,0,0,1-.31,1.95Z"/><path class="cls-4" d="M78.26,884.36a1,1,0,0,1-.44-1.9l4.58-2.22a1,1,0,0,1,.88,1.8l-4.58,2.22A1.17,1.17,0,0,1,78.26,884.36Z"/><path class="cls-4" d="M135.36,1089h0a1,1,0,0,1-1-1l.38-14.69a1,1,0,0,1,1-1,1,1,0,0,1,1,1l-.38,14.69A1,1,0,0,1,135.36,1089Z"/><path class="cls-4" d="M95.85,845.6a1,1,0,0,1-.65-.25l-2-1.73a1,1,0,0,1,1.32-1.5l2,1.73a1,1,0,0,1,.09,1.41A1,1,0,0,1,95.85,845.6Z"/><path class="cls-4" d="M28.23,1089.28a1,1,0,0,1-.71-.29L25,1086.43a1,1,0,0,1,0-1.42,1,1,0,0,1,1.41,0l2.57,2.56a1,1,0,0,1-.7,1.71Z"/><path class="cls-4" d="M94.79,1018.14l-.18,0-5.16-1a1,1,0,0,1,.36-2l5.16.95a1,1,0,0,1-.18,2Z"/><path class="cls-4" d="M202.87,1086.58a1,1,0,0,1-1-.94l-.57-9.53a1,1,0,0,1,.94-1.06,1,1,0,0,1,1.06.94l.56,9.53a1,1,0,0,1-.93,1.06Z"/><path class="cls-4" d="M7,1056.42a1,1,0,0,1-1-.69l-4.15-12.39a1,1,0,1,1,1.89-.64l4.15,12.4a1,1,0,0,1-.63,1.26A.85.85,0,0,1,7,1056.42Z"/><path class="cls-4" d="M29.05,1010.83a1,1,0,0,1-.69-.28L17.25,1000a1,1,0,0,1,0-1.42,1,1,0,0,1,1.41,0l11.12,10.55a1,1,0,0,1,0,1.41A1,1,0,0,1,29.05,1010.83Z"/><path class="cls-4" d="M151.66,821.05a1,1,0,0,1-.86-.48,1,1,0,0,1,.35-1.38l3.52-2.09a1,1,0,1,1,1,1.72l-3.52,2.09A1,1,0,0,1,151.66,821.05Z"/><path class="cls-4" d="M23.71,846.76a1,1,0,0,1-.17-2l7.8-1.39a1,1,0,1,1,.35,2l-7.8,1.39Z"/><path class="cls-4" d="M159.71,1086.94a1,1,0,0,1-1-.87l-1.73-12.7a1,1,0,0,1,.86-1.12,1,1,0,0,1,1.12.85l1.73,12.7a1,1,0,0,1-.86,1.13Z"/><path class="cls-4" d="M20.14,823.93a1,1,0,0,1-.86-.49L17,819.53a1,1,0,0,1,1.73-1L21,822.42a1,1,0,0,1-.35,1.37A.94.94,0,0,1,20.14,823.93Z"/><path class="cls-4" d="M30.91,1069.5a1,1,0,0,1-1-.8l-2.35-11.64a1,1,0,1,1,2-.4l2.35,11.65a1,1,0,0,1-.78,1.17A.68.68,0,0,1,30.91,1069.5Z"/><path class="cls-4" d="M99.82,1041.18a.93.93,0,0,1-.45-.11,1,1,0,0,1-.44-1.34l2.17-4.35a1,1,0,0,1,1.34-.45,1,1,0,0,1,.45,1.34l-2.17,4.36A1,1,0,0,1,99.82,1041.18Z"/><path class="cls-4" d="M148.53,908.4a1,1,0,0,1-.75-.34l-4.13-4.7a1,1,0,0,1,.09-1.41,1,1,0,0,1,1.41.09l4.13,4.7a1,1,0,0,1-.09,1.41A1,1,0,0,1,148.53,908.4Z"/><path class="cls-4" d="M144.89,886.89a1,1,0,0,1-.86-.48l-1.72-2.82a1,1,0,0,1,.33-1.37,1,1,0,0,1,1.38.33l1.72,2.82a1,1,0,0,1-.33,1.37A1,1,0,0,1,144.89,886.89Z"/><path class="cls-4" d="M225.17,848.14H225L216.8,847a1,1,0,0,1-.86-1.12,1,1,0,0,1,1.12-.86l8.24,1.09a1,1,0,0,1,.86,1.13A1,1,0,0,1,225.17,848.14Z"/><path class="cls-4" d="M73.27,840.45a1,1,0,0,1-.91-.6L66.19,826a1,1,0,0,1,1.83-.82L74.19,839a1,1,0,0,1-.51,1.32A1,1,0,0,1,73.27,840.45Z"/><path class="cls-4" d="M2.37,998.35a1,1,0,0,1-1-.92L.76,989.8a1,1,0,1,1,2-.16l.61,7.63a1,1,0,0,1-.91,1.07Z"/><path class="cls-4" d="M76.15,909.57a1,1,0,0,1-.88-.54l-4.14-7.92a1,1,0,0,1,1.77-.92L77,908.1a1,1,0,0,1-.42,1.35A1,1,0,0,1,76.15,909.57Z"/><path class="cls-4" d="M173.4,856.21a1,1,0,0,1-.58-1.82l10.76-7.53a1,1,0,1,1,1.15,1.63L174,856A1,1,0,0,1,173.4,856.21Z"/><path class="cls-4" d="M32.08,1037.65a1,1,0,0,1-.55-.16l-10.24-6.65a1,1,0,1,1,1.09-1.67l10.24,6.64a1,1,0,0,1-.54,1.84Z"/><path class="cls-4" d="M3.67,1086.37H3.51a1,1,0,0,1-.83-1.15l1.81-11.5a1,1,0,0,1,2,.31l-1.8,11.5A1,1,0,0,1,3.67,1086.37Z"/><path class="cls-4" d="M83.09,972.21a1,1,0,0,1-1-.74l-.78-2.79a1,1,0,0,1,.7-1.23,1,1,0,0,1,1.23.69l.78,2.8a1,1,0,0,1-.7,1.23A.84.84,0,0,1,83.09,972.21Z"/><path class="cls-4" d="M51.65,917.65A1,1,0,0,1,50.9,916l1.72-2a1,1,0,1,1,1.5,1.31l-1.71,2A1,1,0,0,1,51.65,917.65Z"/><path class="cls-4" d="M98.87,869a1,1,0,0,1-.5-.14,1,1,0,0,1-.36-1.36l3.75-6.54a1,1,0,0,1,1.36-.37,1,1,0,0,1,.37,1.37l-3.75,6.53A1,1,0,0,1,98.87,869Z"/><path class="cls-4" d="M141.57,999.74a1,1,0,0,1-.85-.47l-3.12-4.94a1,1,0,1,1,1.7-1.06l3.11,4.93a1,1,0,0,1-.31,1.38A1,1,0,0,1,141.57,999.74Z"/><path class="cls-4" d="M255.24,823.18a1,1,0,0,1-1-.81,1,1,0,0,1,.79-1.18l12.78-2.49a1,1,0,0,1,1.18.78,1,1,0,0,1-.79,1.18l-12.78,2.5Z"/><path class="cls-4" d="M70.2,930.57l-.2,0-3.4-.68a1,1,0,0,1,.39-2l3.4.68a1,1,0,0,1-.19,2Z"/><path class="cls-4" d="M59.37,882a1,1,0,0,1-.86-.48l-3.74-6.25a1,1,0,0,1,.35-1.37,1,1,0,0,1,1.37.35l3.74,6.24a1,1,0,0,1-.35,1.37A1,1,0,0,1,59.37,882Z"/><path class="cls-4" d="M5.7,858.92a1,1,0,0,1-.25,0l-4.2-1.09a1,1,0,0,1-.72-1.22,1,1,0,0,1,1.22-.72L6,857a1,1,0,0,1,.71,1.22A1,1,0,0,1,5.7,858.92Z"/><path class="cls-4" d="M268.14,974.72H268l-3.08-.35a1,1,0,1,1,.23-2l3.08.36a1,1,0,0,1-.11,2Z"/><path class="cls-4" d="M253.64,958.19a1.07,1.07,0,0,1-.25,0l-4.74-1.2a1,1,0,0,1,.49-1.94l4.74,1.2a1,1,0,0,1-.24,2Z"/><path class="cls-4" d="M159.06,1027.53a1,1,0,0,1-1-.9l-1-9.26a1,1,0,1,1,2-.21l1,9.26a1,1,0,0,1-.89,1.1Z"/><path class="cls-4" d="M214.61,906.32a1,1,0,0,1-1-.75l-3.5-14a1,1,0,0,1,.72-1.22,1,1,0,0,1,1.22.73l3.5,14a1,1,0,0,1-.73,1.21Z"/><path class="cls-4" d="M183.27,1086.35h0l-4.29-.09a1,1,0,0,1-1-1,1,1,0,0,1,1-1l4.29.09a1,1,0,0,1,0,2Z"/></g><g class="cls-3"><path class="cls-4" d="M118.83,1326.66h0a1,1,0,0,1-1-1l.36-13.09a1,1,0,0,1,1-1,1,1,0,0,1,1,1l-.37,13.09A1,1,0,0,1,118.83,1326.66Z"/><path class="cls-4" d="M87.09,1219.51a1,1,0,0,1-1-.79l-1-4.42a1,1,0,1,1,2-.42l.95,4.42a1,1,0,0,1-.76,1.19Z"/><path class="cls-4" d="M52.06,1339.24a1,1,0,0,1-.94-.66l-1.52-4.26a1,1,0,0,1,1.89-.67l1.51,4.26a1,1,0,0,1-.6,1.27A1,1,0,0,1,52.06,1339.24Z"/><path class="cls-4" d="M170.27,1274.92a1.12,1.12,0,0,1-.31-.05l-8-2.63a1,1,0,0,1-.64-1.27,1,1,0,0,1,1.26-.63l8,2.63a1,1,0,0,1,.63,1.26A1,1,0,0,1,170.27,1274.92Z"/><path class="cls-4" d="M241.76,1244.5a.93.93,0,0,1-.57-.19l-3.57-2.53a1,1,0,0,1-.23-1.4,1,1,0,0,1,1.39-.23l3.57,2.53a1,1,0,0,1-.59,1.82Z"/><path class="cls-4" d="M271.32,1206.44a1,1,0,0,1-.92-.61l-1.56-3.59a1,1,0,0,1,1.83-.79l1.57,3.59a1,1,0,0,1-.52,1.31A1,1,0,0,1,271.32,1206.44Z"/><path class="cls-4" d="M200.28,1094.48a1,1,0,0,1-.53-.15l-5.09-3.16a1,1,0,0,1-.33-1.37,1,1,0,0,1,1.38-.33l5.09,3.15a1,1,0,0,1-.52,1.86Z"/><path class="cls-4" d="M142.77,1228.61a1,1,0,0,1-.9-.55,1,1,0,0,1,.45-1.35l3.79-1.88a1,1,0,1,1,.89,1.79l-3.79,1.88A.87.87,0,0,1,142.77,1228.61Z"/><path class="cls-4" d="M34.23,1238.48a1,1,0,0,1-.52-.15,1,1,0,0,1-.33-1.37l5.34-8.74a1,1,0,0,1,1.37-.34,1,1,0,0,1,.33,1.38L35.08,1238A1,1,0,0,1,34.23,1238.48Z"/><path class="cls-4" d="M35.59,1094.5a1,1,0,0,1-.07-2l15-1.08a1,1,0,1,1,.14,2l-15,1.07Z"/><path class="cls-4" d="M248.87,1196.89a1,1,0,0,1-.83-.44l-2.47-3.66a1,1,0,1,1,1.66-1.12l2.47,3.66a1,1,0,0,1-.27,1.39A1,1,0,0,1,248.87,1196.89Z"/><path class="cls-4" d="M107.55,1206.73a1,1,0,0,1-.73-.31,1,1,0,0,1,0-1.42l1.91-1.79a1,1,0,0,1,1.41,0,1,1,0,0,1,0,1.42l-1.91,1.79A1,1,0,0,1,107.55,1206.73Z"/><path class="cls-4" d="M247.15,1149.79a.85.85,0,0,1-.23,0,1,1,0,0,1-.74-1.21l.79-3.29a1,1,0,0,1,1.94.47l-.79,3.29A1,1,0,0,1,247.15,1149.79Z"/><path class="cls-4" d="M64,1272.1a1,1,0,0,1-.5-.13l-2.64-1.52a1,1,0,1,1,1-1.73l2.64,1.51a1,1,0,0,1-.49,1.87Z"/><path class="cls-4" d="M258.36,1213.47h-.13l-2.65-.33a1,1,0,0,1,.25-2l2.65.33a1,1,0,0,1-.12,2Z"/><path class="cls-4" d="M219.1,1229.49a1,1,0,0,1-.56-.17l-8-5.4a1,1,0,1,1,1.11-1.66l8,5.39a1,1,0,0,1,.27,1.39A1,1,0,0,1,219.1,1229.49Z"/><path class="cls-4" d="M125.45,1096a1,1,0,0,1-.46-1.89l6.7-3.47a1,1,0,1,1,.92,1.78l-6.7,3.47A1.07,1.07,0,0,1,125.45,1096Z"/><path class="cls-4" d="M187.92,1192.42a1,1,0,0,1-.38-.08l-5.66-2.35a1,1,0,1,1,.77-1.85l5.66,2.35a1,1,0,0,1,.53,1.31A1,1,0,0,1,187.92,1192.42Z"/><path class="cls-4" d="M109.94,1104.16a1,1,0,0,1-.88-.54l-5.81-11.1a1,1,0,1,1,1.77-.93l5.81,11.11a1,1,0,0,1-.43,1.35A1,1,0,0,1,109.94,1104.16Z"/><path class="cls-4" d="M125.49,1219.27a1,1,0,0,1-1-1l-.16-3.67a1,1,0,0,1,1-1,1,1,0,0,1,1,1l.16,3.67a1,1,0,0,1-.95,1Z"/><path class="cls-4" d="M216.08,1096.18a1,1,0,0,1-.48-.13,1,1,0,0,1-.39-1.36l1.92-3.48a1,1,0,0,1,1.75,1l-1.92,3.48A1,1,0,0,1,216.08,1096.18Z"/><path class="cls-4" d="M244.14,1337.88a1,1,0,0,1-1-.87l-1-7.59a1,1,0,0,1,2-.27l1,7.59a1,1,0,0,1-.85,1.13Z"/><path class="cls-4" d="M203,1306a1,1,0,0,1-1-.75l-1.08-4.24a1,1,0,0,1,1.94-.49l1.08,4.23a1,1,0,0,1-.72,1.22A1.07,1.07,0,0,1,203,1306Z"/><path class="cls-4" d="M73.52,1320.82a1,1,0,0,1-.81-1.59l9-12.26a1,1,0,1,1,1.61,1.18l-8.94,12.26A1,1,0,0,1,73.52,1320.82Z"/><path class="cls-4" d="M235.58,1101.68h-.17a1,1,0,0,1-.82-1.16l1.35-7.82a1,1,0,0,1,2,.34l-1.35,7.82A1,1,0,0,1,235.58,1101.68Z"/><path class="cls-4" d="M245.31,1124.74a1,1,0,0,1-1-.82l-.83-4.59a1,1,0,0,1,.8-1.16,1,1,0,0,1,1.17.8l.83,4.59a1,1,0,0,1-.81,1.16Z"/><path class="cls-4" d="M72.84,1348.27a1,1,0,0,1-1-.84l-2.08-13.31a1,1,0,0,1,2-.31l2.07,13.31a1,1,0,0,1-.83,1.14Z"/><path class="cls-4" d="M2.34,1295a1,1,0,0,1-.88-1.48l1.76-3.18a1,1,0,0,1,1.35-.39,1,1,0,0,1,.4,1.36l-1.76,3.18A1,1,0,0,1,2.34,1295Z"/><path class="cls-4" d="M261.5,1162.9a1,1,0,0,1-.19-2l8.16-1.59a1,1,0,1,1,.39,2l-8.16,1.59A.68.68,0,0,1,261.5,1162.9Z"/><path class="cls-4" d="M269.09,1298.67a1,1,0,0,1-1-.84l-1.38-8.46a1,1,0,1,1,2-.33l1.38,8.47a1,1,0,0,1-.82,1.15Z"/><path class="cls-4" d="M161.1,1189.43a1,1,0,0,1-.58-1.82l2.51-1.75a1,1,0,0,1,1.4.24,1,1,0,0,1-.25,1.4l-2.51,1.75A1,1,0,0,1,161.1,1189.43Z"/><path class="cls-4" d="M140.46,1115.48a1,1,0,0,1-.88-.51l-1.54-2.75a1,1,0,0,1,1.75-1l1.54,2.75a1,1,0,0,1-.87,1.49Z"/><path class="cls-4" d="M90.53,1195.17A1,1,0,0,1,90,1195a1,1,0,0,1-.32-1.37l4.33-7a1,1,0,0,1,1.37-.32,1,1,0,0,1,.33,1.38l-4.33,7A1,1,0,0,1,90.53,1195.17Z"/><path class="cls-4" d="M220.78,1339.8a1,1,0,0,1-.21-2l4-.89a1,1,0,0,1,.43,2l-4,.89Z"/><path class="cls-4" d="M108,1228.38a1,1,0,0,1-.53-.15l-3.7-2.35a1,1,0,0,1-.3-1.38,1,1,0,0,1,1.38-.31l3.69,2.35a1,1,0,0,1-.54,1.84Z"/><path class="cls-4" d="M128.59,1293.66a1,1,0,0,1-.27-2l9.59-2.64a1,1,0,1,1,.53,1.93l-9.59,2.64Z"/><path class="cls-4" d="M4.9,1201.66a1,1,0,0,1-.29,0l-2.89-.89a1,1,0,1,1,.58-1.91l2.89.89a1,1,0,0,1-.29,2Z"/><path class="cls-4" d="M127.94,1250a1,1,0,0,1-.93-.62l-3.49-8.46a1,1,0,0,1,1.84-.76l3.5,8.46a1,1,0,0,1-.54,1.3A.9.9,0,0,1,127.94,1250Z"/><path class="cls-4" d="M269.22,1270.05a1.15,1.15,0,0,1-.36-.07l-13.46-5.21a1,1,0,0,1,.72-1.87l13.46,5.21a1,1,0,0,1-.36,1.94Z"/><path class="cls-4" d="M225.77,1195.35a1,1,0,0,1-.5-1.87l2.29-1.33a1,1,0,0,1,1,1.73l-2.3,1.33A1,1,0,0,1,225.77,1195.35Z"/><path class="cls-4" d="M200.85,1115.58a1,1,0,0,1-.86-.48l-3.29-5.45a1,1,0,0,1,.33-1.37,1,1,0,0,1,1.38.33l3.29,5.45a1,1,0,0,1-.33,1.37A1,1,0,0,1,200.85,1115.58Z"/><path class="cls-4" d="M1,1242.72H.89a1,1,0,0,1-.88-1.1l.3-2.87a1,1,0,0,1,2,.21L2,1241.82A1,1,0,0,1,1,1242.72Z"/><path class="cls-4" d="M260.77,1318.22a1,1,0,0,1-1-.87,1,1,0,0,1,.86-1.12l7.93-1a1,1,0,0,1,.26,2l-7.93,1Z"/><path class="cls-4" d="M68.56,1227.29a1,1,0,0,1-.54-.16l-8.35-5.44a1,1,0,1,1,1.09-1.67l8.35,5.43a1,1,0,0,1-.55,1.84Z"/><path class="cls-4" d="M28,1164.87a1,1,0,0,1-.37-.07l-9.68-3.86a1,1,0,1,1,.74-1.86l9.68,3.86a1,1,0,0,1-.37,1.93Z"/><path class="cls-4" d="M3.21,1181.82H3.07a1,1,0,0,1-.85-1.13l.55-3.75a1,1,0,1,1,2,.29L4.2,1181A1,1,0,0,1,3.21,1181.82Z"/><path class="cls-4" d="M175.13,1238.2a1,1,0,0,1-.67-.27L167,1231a1,1,0,0,1,1.35-1.47l7.51,6.9a1,1,0,0,1-.68,1.74Z"/><path class="cls-4" d="M69.09,1295.1h-.15a1,1,0,0,1-.84-1.14l.76-5a1,1,0,1,1,2,.3l-.75,5A1,1,0,0,1,69.09,1295.1Z"/><path class="cls-4" d="M213.69,1276.52a1,1,0,0,1-.16-2l2.73-.43a1,1,0,1,1,.31,2l-2.73.43Z"/><path class="cls-4" d="M17.56,1250a1,1,0,0,1-.77-1.64l2.15-2.62a1,1,0,1,1,1.55,1.27l-2.16,2.62A1,1,0,0,1,17.56,1250Z"/><path class="cls-4" d="M268.73,1143.2h-.11l-3.24-.34a1,1,0,0,1,.21-2l3.24.34a1,1,0,0,1-.1,2Z"/><path class="cls-4" d="M178.44,1096.47a1,1,0,0,1-.9-.55l-1.95-3.94a1,1,0,0,1,.45-1.34,1,1,0,0,1,1.34.45l2,3.94a1,1,0,0,1-.45,1.34A1,1,0,0,1,178.44,1096.47Z"/><path class="cls-4" d="M35.69,1143.14a1,1,0,0,1-.3,0l-11.08-3.39a1,1,0,1,1,.58-1.91L36,1141.18a1,1,0,0,1-.29,2Z"/><path class="cls-4" d="M266.8,1187.7a1.12,1.12,0,0,1-.31,0,1,1,0,0,1-.64-1.27l2.29-6.8a1,1,0,1,1,1.89.63l-2.28,6.8A1,1,0,0,1,266.8,1187.7Z"/><path class="cls-4" d="M142.72,1312.72a1,1,0,0,1-.76-.34l-4-4.66a1,1,0,1,1,1.51-1.3l4,4.65a1,1,0,0,1-.11,1.41A1,1,0,0,1,142.72,1312.72Z"/><path class="cls-4" d="M6.09,1220.78a1,1,0,0,1-.11-2l12.5-1.52a1,1,0,0,1,1.11.87,1,1,0,0,1-.87,1.12l-12.5,1.52Z"/><path class="cls-4" d="M192.05,1172.55a1,1,0,0,1-1-.82l-1.48-7.93a1,1,0,1,1,2-.37l1.48,7.94a1,1,0,0,1-.8,1.16Z"/><path class="cls-4" d="M88.19,1272.13a1,1,0,0,1-.65-.24l-7.13-6.25a1,1,0,0,1-.09-1.41,1,1,0,0,1,1.41-.09l7.12,6.24a1,1,0,0,1-.66,1.75Z"/><path class="cls-4" d="M201.21,1331.47a1,1,0,0,1-.41-.09,1,1,0,0,1-.51-1.32l3.44-7.66a1,1,0,0,1,1.83.82l-3.44,7.66A1,1,0,0,1,201.21,1331.47Z"/><path class="cls-4" d="M157.45,1144a1,1,0,0,1-1-.72l-3.81-13.2a1,1,0,0,1,1.92-.56l3.81,13.2a1,1,0,0,1-.68,1.24A.86.86,0,0,1,157.45,1144Z"/><path class="cls-4" d="M62.85,1252.16a1,1,0,0,1-.8-.4l-6-8a1,1,0,1,1,1.6-1.2l6,8a1,1,0,0,1-.2,1.4A1,1,0,0,1,62.85,1252.16Z"/><path class="cls-4" d="M2,1160.17a1,1,0,0,1-1-1l-.4-9.76a1,1,0,0,1,2-.08l.4,9.76a1,1,0,0,1-1,1Z"/><path class="cls-4" d="M178.8,1258.34a1,1,0,0,1-.74-1.68l2.27-2.48a1,1,0,1,1,1.47,1.34l-2.26,2.49A1,1,0,0,1,178.8,1258.34Z"/><path class="cls-4" d="M164.51,1214.55a1,1,0,0,1-.33-.06,1,1,0,0,1-.61-1.27l3.14-9a1,1,0,1,1,1.89.67l-3.15,9A1,1,0,0,1,164.51,1214.55Z"/><path class="cls-4" d="M226,1256.12a1,1,0,0,1-.38-.07l-11.76-4.77a1,1,0,0,1,.75-1.86l11.76,4.77a1,1,0,0,1,.55,1.31A1,1,0,0,1,226,1256.12Z"/><path class="cls-4" d="M207,1204.14a1,1,0,0,1-1-.86l-.91-6.67a1,1,0,0,1,2-.27l.9,6.67a1,1,0,0,1-.85,1.12Z"/><path class="cls-4" d="M53.41,1172a1,1,0,0,1-.41-.09l-10.24-4.59a1,1,0,1,1,.81-1.82l10.25,4.59a1,1,0,0,1,.51,1.32A1,1,0,0,1,53.41,1172Z"/><path class="cls-4" d="M113.67,1284.81l-.2,0a1,1,0,0,1-.78-1.18l2.41-11.94a1,1,0,0,1,2,.4L114.65,1284A1,1,0,0,1,113.67,1284.81Z"/><path class="cls-4" d="M118,1122.23a1,1,0,0,1-.35-1.94l4.48-1.65a1,1,0,0,1,1.28.6,1,1,0,0,1-.59,1.28l-4.48,1.65A1,1,0,0,1,118,1122.23Z"/><path class="cls-4" d="M117.65,1187.16a1,1,0,0,1,0-2l11.13-.09a1,1,0,0,1,1,1,1,1,0,0,1-1,1l-11.13.09Z"/><path class="cls-4" d="M235.75,1279.62a.86.86,0,0,1-.28,0,1,1,0,0,1-.69-1.24l3.89-13.41a1,1,0,0,1,1.92.56l-3.88,13.41A1,1,0,0,1,235.75,1279.62Z"/><path class="cls-4" d="M222.12,1318.79a1,1,0,0,1-.37-1.93l6.53-2.57a1,1,0,0,1,.73,1.87l-6.53,2.56A.92.92,0,0,1,222.12,1318.79Z"/><path class="cls-4" d="M180.77,1150.09a1,1,0,0,1-.83-.44l-2-2.89a1,1,0,1,1,1.66-1.12l2,2.89a1,1,0,0,1-.27,1.39A1,1,0,0,1,180.77,1150.09Z"/><path class="cls-4" d="M104.51,1171.55a1,1,0,0,1-.87-.51L98,1161a1,1,0,1,1,1.74-1l5.64,10a1,1,0,0,1-.87,1.49Z"/><path class="cls-4" d="M157.07,1253.35a1,1,0,0,1-.69-.28l-6.34-6.13a1,1,0,0,1,1.39-1.44l6.34,6.13a1,1,0,0,1-.7,1.72Z"/><path class="cls-4" d="M183.37,1291.16a1,1,0,0,1-.76-.36,1,1,0,0,1,.12-1.41l9-7.49a1,1,0,1,1,1.28,1.53l-9,7.5A1,1,0,0,1,183.37,1291.16Z"/><path class="cls-4" d="M55.84,1316.55a.62.62,0,0,1-.19,0l-4.3-.8a1,1,0,0,1,.36-2l4.31.81a1,1,0,0,1-.18,2Z"/><path class="cls-4" d="M103.92,1340.09a.9.9,0,0,1-.47-.13l-12.29-6.66a1,1,0,0,1,1-1.76l12.29,6.67a1,1,0,0,1-.48,1.88Z"/><path class="cls-4" d="M170.5,1170a1,1,0,0,1-.64-.23l-6-5a1,1,0,1,1,1.28-1.53l6,5a1,1,0,0,1,.13,1.41A1,1,0,0,1,170.5,1170Z"/><path class="cls-4" d="M271.14,1228.58a1,1,0,0,1-.94-.66l-1-2.7a1,1,0,0,1,1.89-.67l1,2.7a1,1,0,0,1-.61,1.27A1,1,0,0,1,271.14,1228.58Z"/><path class="cls-4" d="M51.89,1129.14a1,1,0,0,1-1-.91l-1.39-15a1,1,0,1,1,2-.18l1.39,15a1,1,0,0,1-.9,1.09Z"/><path class="cls-4" d="M139.63,1331.72a.79.79,0,0,1-.3,0l-2.41-.77a1,1,0,1,1,.6-1.9l2.42.77a1,1,0,0,1-.31,2Z"/><path class="cls-4" d="M125.37,1165.87a1,1,0,0,1-.66-.25l-2.07-1.85a1,1,0,0,1,1.34-1.49l2.06,1.85a1,1,0,0,1-.67,1.74Z"/><path class="cls-4" d="M198.1,1241.88a1,1,0,0,1-.83-.44l-3.66-5.42a1,1,0,1,1,1.66-1.12l3.66,5.42a1,1,0,0,1-.27,1.39A1,1,0,0,1,198.1,1241.88Z"/><path class="cls-4" d="M266,1126.26h-.06a1,1,0,0,1-.94-1.06l.8-13.61a1,1,0,0,1,2,.12l-.8,13.61A1,1,0,0,1,266,1126.26Z"/><path class="cls-4" d="M158.56,1110.51a1,1,0,0,1-.16-2l8.57-1.4a1,1,0,0,1,1.15.83,1,1,0,0,1-.83,1.14l-8.57,1.4Z"/><path class="cls-4" d="M184.54,1315a1,1,0,0,1-.44-.1l-9.86-4.83a1,1,0,0,1-.45-1.34,1,1,0,0,1,1.33-.46l9.86,4.83a1,1,0,0,1,.46,1.34A1,1,0,0,1,184.54,1315Z"/><path class="cls-4" d="M144.91,1206.49a1,1,0,0,1-.76-.34l-5.45-6.27a1,1,0,0,1,1.51-1.31l5.45,6.27a1,1,0,0,1-.75,1.65Z"/><path class="cls-4" d="M198.37,1265.07a1.07,1.07,0,0,1-.25,0,1,1,0,0,1-.72-1.22l.8-3.15a1,1,0,1,1,1.94.49l-.8,3.16A1,1,0,0,1,198.37,1265.07Z"/><path class="cls-4" d="M50,1297.64a1,1,0,0,1-1-.79l-3-13.75a1,1,0,1,1,1.95-.43l3,13.75a1,1,0,0,1-.76,1.19A.83.83,0,0,1,50,1297.64Z"/><path class="cls-4" d="M111.48,1359a1,1,0,0,1-.72-.31,1,1,0,0,1,0-1.41l5.84-5.53a1,1,0,0,1,1.41,0,1,1,0,0,1,0,1.42l-5.84,5.52A1,1,0,0,1,111.48,1359Z"/><path class="cls-4" d="M45.12,1211.09a1,1,0,0,1-.73-.31l-7.64-8.15a1,1,0,0,1,0-1.42,1,1,0,0,1,1.41,0l7.64,8.15a1,1,0,0,1,0,1.41A1,1,0,0,1,45.12,1211.09Z"/><path class="cls-4" d="M224.51,1295.2h-.09l-7.4-.62a1,1,0,0,1-.91-1.08,1,1,0,0,1,1.08-.91l7.4.62a1,1,0,0,1-.08,2Z"/><path class="cls-4" d="M230.56,1215.66a1,1,0,0,1-.26-2l7.26-2a1,1,0,0,1,1.23.7,1,1,0,0,1-.71,1.23l-7.26,2A.82.82,0,0,1,230.56,1215.66Z"/><path class="cls-4" d="M247.23,1175.17a1,1,0,0,1-.43-.1l-14.07-6.7a1,1,0,0,1-.48-1.33,1,1,0,0,1,1.34-.48l14.07,6.71a1,1,0,0,1-.43,1.9Z"/><path class="cls-4" d="M179.82,1339.43a1,1,0,0,1-.6-.2,1,1,0,0,1-.19-1.4l3.7-4.86a1,1,0,1,1,1.59,1.21l-3.7,4.86A1,1,0,0,1,179.82,1339.43Z"/><path class="cls-4" d="M227.05,1147.57H227a1,1,0,0,1-.9-1.09l.62-6.76a1,1,0,1,1,2,.18l-.62,6.77A1,1,0,0,1,227.05,1147.57Z"/><path class="cls-4" d="M206.21,1145.51a1,1,0,0,1-.77-.36l-7.94-9.45a1,1,0,1,1,1.53-1.29l7.94,9.45a1,1,0,0,1-.76,1.65Z"/><path class="cls-4" d="M20.9,1190.21a1,1,0,0,1-.48-1.87l8.19-4.55a1,1,0,0,1,1.36.39,1,1,0,0,1-.38,1.36l-8.2,4.55A1.07,1.07,0,0,1,20.9,1190.21Z"/><path class="cls-4" d="M85.31,1097a1,1,0,0,1-1-.84l-.89-5.39a1,1,0,1,1,2-.33l.9,5.39a1,1,0,0,1-.83,1.15Z"/><path class="cls-4" d="M41.74,1263a1,1,0,0,1-.82-.42L37.61,1258a1,1,0,1,1,1.63-1.17l3.31,4.62a1,1,0,0,1-.23,1.4A1,1,0,0,1,41.74,1263Z"/><path class="cls-4" d="M266.77,1340a1,1,0,0,1-1-.85l-.7-4.52a1,1,0,0,1,2-.31l.69,4.53a1,1,0,0,1-.83,1.14Z"/><path class="cls-4" d="M119.84,1145.9a1,1,0,0,1-.37-1.93l13.29-5.29a1,1,0,0,1,.74,1.86l-13.29,5.29A1.21,1.21,0,0,1,119.84,1145.9Z"/><path class="cls-4" d="M163.81,1326.8a1,1,0,0,1-.41-.09l-7.18-3.17a1,1,0,1,1,.81-1.83l7.18,3.17a1,1,0,0,1-.4,1.92Z"/><path class="cls-4" d="M244.11,1305.82a1,1,0,0,1-.45-.11,1,1,0,0,1-.44-1.34L250,1291a1,1,0,1,1,1.78.9L245,1305.27A1,1,0,0,1,244.11,1305.82Z"/><path class="cls-4" d="M70.41,1135.74a1,1,0,0,1-.28-2l11.4-3.45a1,1,0,0,1,.58,1.92L70.7,1135.7A.92.92,0,0,1,70.41,1135.74Z"/><path class="cls-4" d="M3.76,1110.2a1,1,0,0,1-1-.82l-2.71-15.3a1,1,0,0,1,2-.35L4.74,1109a1,1,0,0,1-.81,1.16Z"/><path class="cls-4" d="M103.48,1258.83a1,1,0,0,1-1-.84l-2.18-13.61a1,1,0,0,1,2-.32l2.18,13.62a1,1,0,0,1-.83,1.14Z"/><path class="cls-4" d="M190.27,1216.49a.84.84,0,0,1-.31,0l-3.78-1.24a1,1,0,1,1,.62-1.9l3.78,1.24a1,1,0,0,1-.31,2Z"/><path class="cls-4" d="M78.26,1156.68a1,1,0,0,1-.44-1.9l4.58-2.22a1,1,0,1,1,.88,1.8l-4.58,2.22A1.17,1.17,0,0,1,78.26,1156.68Z"/><path class="cls-4" d="M135.36,1361.3h0a1,1,0,0,1-1-1l.38-14.69a1,1,0,0,1,1-1,1,1,0,0,1,1,1l-.38,14.69A1,1,0,0,1,135.36,1361.3Z"/><path class="cls-4" d="M95.85,1117.92a1,1,0,0,1-.65-.25l-2-1.73a1,1,0,0,1,1.32-1.5l2,1.73a1,1,0,0,1,.09,1.41A1,1,0,0,1,95.85,1117.92Z"/><path class="cls-4" d="M94.79,1290.46l-.18,0-5.16-1a1,1,0,0,1,.36-2l5.16,1a1,1,0,0,1-.18,2Z"/><path class="cls-4" d="M202.87,1358.9a1,1,0,0,1-1-.94l-.57-9.53a1,1,0,0,1,.94-1.06,1,1,0,0,1,1.06.94l.56,9.53a1,1,0,0,1-.93,1.06Z"/><path class="cls-4" d="M7,1328.74a1,1,0,0,1-1-.69l-4.15-12.39a1,1,0,1,1,1.89-.64l4.15,12.4a1,1,0,0,1-.63,1.26A.85.85,0,0,1,7,1328.74Z"/><path class="cls-4" d="M29.05,1283.15a1,1,0,0,1-.69-.28l-11.11-10.55a1,1,0,0,1,0-1.42,1,1,0,0,1,1.41,0l11.12,10.55a1,1,0,0,1,0,1.41A1,1,0,0,1,29.05,1283.15Z"/><path class="cls-4" d="M151.66,1093.37a1,1,0,0,1-.86-.48,1,1,0,0,1,.35-1.38l3.52-2.09a1,1,0,1,1,1,1.72l-3.52,2.09A1,1,0,0,1,151.66,1093.37Z"/><path class="cls-4" d="M23.71,1119.08a1,1,0,0,1-.17-2l7.8-1.39a1,1,0,1,1,.35,2l-7.8,1.39Z"/><path class="cls-4" d="M159.71,1359.26a1,1,0,0,1-1-.87l-1.73-12.7a1,1,0,0,1,.86-1.12,1,1,0,0,1,1.12.85l1.73,12.7a1,1,0,0,1-.86,1.13Z"/><path class="cls-4" d="M20.14,1096.25a1,1,0,0,1-.86-.49l-2.3-3.91a1,1,0,0,1,1.73-1l2.29,3.91a1,1,0,0,1-.35,1.37A.94.94,0,0,1,20.14,1096.25Z"/><path class="cls-4" d="M30.91,1341.82a1,1,0,0,1-1-.8l-2.35-11.64a1,1,0,0,1,2-.4l2.35,11.65a1,1,0,0,1-.78,1.17A.68.68,0,0,1,30.91,1341.82Z"/><path class="cls-4" d="M99.82,1313.5a.93.93,0,0,1-.45-.11,1,1,0,0,1-.44-1.34l2.17-4.35a1,1,0,0,1,1.34-.45,1,1,0,0,1,.45,1.34l-2.17,4.36A1,1,0,0,1,99.82,1313.5Z"/><path class="cls-4" d="M148.53,1180.72a1,1,0,0,1-.75-.34l-4.13-4.7a1,1,0,0,1,.09-1.41,1,1,0,0,1,1.41.09l4.13,4.7a1,1,0,0,1-.09,1.41A1,1,0,0,1,148.53,1180.72Z"/><path class="cls-4" d="M144.89,1159.21a1,1,0,0,1-.86-.48l-1.72-2.82a1,1,0,0,1,.33-1.37,1,1,0,0,1,1.38.33l1.72,2.82a1,1,0,0,1-.33,1.37A1,1,0,0,1,144.89,1159.21Z"/><path class="cls-4" d="M225.17,1120.46H225l-8.24-1.1a1,1,0,0,1-.86-1.12,1,1,0,0,1,1.12-.86l8.24,1.09a1,1,0,0,1,.86,1.13A1,1,0,0,1,225.17,1120.46Z"/><path class="cls-4" d="M73.27,1112.77a1,1,0,0,1-.91-.6l-6.17-13.85a1,1,0,0,1,1.83-.82l6.17,13.86a1,1,0,0,1-.51,1.32A1,1,0,0,1,73.27,1112.77Z"/><path class="cls-4" d="M2.37,1270.67a1,1,0,0,1-1-.92l-.61-7.63a1,1,0,1,1,2-.16l.61,7.63a1,1,0,0,1-.91,1.07Z"/><path class="cls-4" d="M76.15,1181.89a1,1,0,0,1-.88-.54l-4.14-7.92a1,1,0,0,1,1.77-.92l4.14,7.91a1,1,0,0,1-.42,1.35A1,1,0,0,1,76.15,1181.89Z"/><path class="cls-4" d="M173.4,1128.53a1,1,0,0,1-.58-1.82l10.76-7.53a1,1,0,1,1,1.15,1.63L174,1128.35A1,1,0,0,1,173.4,1128.53Z"/><path class="cls-4" d="M32.08,1310a1,1,0,0,1-.55-.16l-10.24-6.65a1,1,0,1,1,1.09-1.67l10.24,6.64a1,1,0,0,1-.54,1.84Z"/><path class="cls-4" d="M3.67,1358.69H3.51a1,1,0,0,1-.83-1.15L4.49,1346a1,1,0,0,1,2,.31l-1.8,11.5A1,1,0,0,1,3.67,1358.69Z"/><path class="cls-4" d="M83.09,1244.53a1,1,0,0,1-1-.73l-.78-2.8a1,1,0,0,1,.7-1.23,1,1,0,0,1,1.23.69l.78,2.8a1,1,0,0,1-.7,1.23A.84.84,0,0,1,83.09,1244.53Z"/><path class="cls-4" d="M51.65,1190a1,1,0,0,1-.75-1.66l1.72-2a1,1,0,1,1,1.5,1.31l-1.71,2A1,1,0,0,1,51.65,1190Z"/><path class="cls-4" d="M98.87,1141.34a1,1,0,0,1-.5-.14,1,1,0,0,1-.36-1.36l3.75-6.54a1,1,0,0,1,1.36-.37,1,1,0,0,1,.37,1.37l-3.75,6.53A1,1,0,0,1,98.87,1141.34Z"/><path class="cls-4" d="M141.57,1272.06a1,1,0,0,1-.85-.47l-3.12-4.94a1,1,0,0,1,1.7-1.06l3.11,4.94a1,1,0,0,1-.31,1.37A1,1,0,0,1,141.57,1272.06Z"/><path class="cls-4" d="M255.24,1095.5a1,1,0,0,1-1-.81,1,1,0,0,1,.79-1.18l12.78-2.49a1,1,0,0,1,1.18.78,1,1,0,0,1-.79,1.18l-12.78,2.5Z"/><path class="cls-4" d="M70.2,1202.89l-.2,0-3.4-.68a1,1,0,0,1,.39-2l3.4.68a1,1,0,0,1-.19,2Z"/><path class="cls-4" d="M59.37,1154.31a1,1,0,0,1-.86-.48l-3.74-6.25a1,1,0,0,1,.35-1.37,1,1,0,0,1,1.37.35l3.74,6.24a1,1,0,0,1-.35,1.37A1,1,0,0,1,59.37,1154.31Z"/><path class="cls-4" d="M5.7,1131.24a1,1,0,0,1-.25,0l-4.2-1.09a1,1,0,0,1-.72-1.22,1,1,0,0,1,1.22-.72l4.2,1.09a1,1,0,0,1,.71,1.22A1,1,0,0,1,5.7,1131.24Z"/><path class="cls-4" d="M268.14,1247H268l-3.08-.35a1,1,0,0,1,.23-2l3.08.36a1,1,0,0,1-.11,2Z"/><path class="cls-4" d="M253.64,1230.51a1.07,1.07,0,0,1-.25,0l-4.74-1.2a1,1,0,0,1,.49-1.94l4.74,1.2a1,1,0,0,1-.24,2Z"/><path class="cls-4" d="M159.06,1299.85a1,1,0,0,1-1-.9l-1-9.26a1,1,0,0,1,2-.21l1,9.26a1,1,0,0,1-.89,1.1Z"/><path class="cls-4" d="M214.61,1178.64a1,1,0,0,1-1-.75l-3.5-14a1,1,0,0,1,.72-1.22,1,1,0,0,1,1.22.73l3.5,14a1,1,0,0,1-1,1.24Z"/></g></g><line class="cls-5" x1="1015.85" y1="100.9" x2="1250.58" y2="335.62"/><path class="cls-4" d="M199.15,441.6a18.68,18.68,0,0,1,18.56,18.56,18.09,18.09,0,0,1-5.47,13.28,17.85,17.85,0,0,1-13.09,5.47h-66a18.68,18.68,0,0,1-18.75-18.75,17.85,17.85,0,0,1,5.47-13.09,18.09,18.09,0,0,1,13.28-5.47h14.25V236.33H133.14a18.75,18.75,0,1,1,0-37.5h66a17.89,17.89,0,0,1,13.09,5.47,18.86,18.86,0,0,1,0,26.56,17.85,17.85,0,0,1-13.09,5.47H184.7V441.6Z"/><path class="cls-4" d="M287.82,337.11V460.16a18.08,18.08,0,0,1-5.46,13.28,17.85,17.85,0,0,1-13.09,5.47,18.68,18.68,0,0,1-18.75-18.75V217.58q0-12.5,11.52-17.19a19.89,19.89,0,0,1,7.82-1.75q6.83,0,12.5,5.66L418.68,340.63v-123a18.68,18.68,0,0,1,18.75-18.75,17.89,17.89,0,0,1,13.09,5.47A18.11,18.11,0,0,1,456,217.58V460.16q0,12.49-11.53,17.38a18.27,18.27,0,0,1-7,1.37,18.07,18.07,0,0,1-13.28-5.47Zm0-52.73L418.68,415.24V393.56L287.82,262.7Z"/><path class="cls-4" d="M734.51,338.87q0,58-41,99a145.36,145.36,0,0,1-31.29,23.91,130.49,130.49,0,0,1-35,13.52,146.64,146.64,0,0,1-32.73,3.58H516.54a18.68,18.68,0,0,1-18.75-18.75V294.73q0-12.5,11.52-17.19a19.88,19.88,0,0,1,7.81-1.75q6.84,0,12.5,5.86l107,106.83a17.85,17.85,0,0,1,5.47,13.09,18.78,18.78,0,0,1-32,13.28l-75-75V441.61h59.38q42.38,0,72.46-30.08,30.27-30.07,30.27-72.66,0-42.37-30.27-72.46-30.07-30.08-72.46-30.08H558.92L673.76,351.18a18.86,18.86,0,0,1,0,26.56A18.43,18.43,0,0,1,660.48,383a18.18,18.18,0,0,1-13.08-5.27L500.52,230.86a18.75,18.75,0,0,1,13.28-32h80.67q57.81,0,99,41.21Q734.5,281.07,734.51,338.87Z"/><path class="cls-4" d="M892.12,340.43,782.35,230.86q-5.65-5.85-5.66-12.5a20.33,20.33,0,0,1,1.76-8q4.68-11.52,17.19-11.52h162.5a18.75,18.75,0,1,1,0,37.5H840.75L950.32,345.9a18.08,18.08,0,0,1,5.47,13.28,18.68,18.68,0,0,1-18.55,18.56H822.59V441.6H958.14a18.12,18.12,0,0,1,13.28,5.47,17.89,17.89,0,0,1,5.47,13.09,18.68,18.68,0,0,1-18.75,18.75H803.84a17.85,17.85,0,0,1-13.09-5.47,18.09,18.09,0,0,1-5.47-13.28v-101a18.12,18.12,0,0,1,5.47-13.28,17.89,17.89,0,0,1,13.09-5.47h13.48l-35.16-35.15A18.09,18.09,0,0,1,776.69,292a17.85,17.85,0,0,1,5.47-13.08,18.09,18.09,0,0,1,13.28-5.47,17.89,17.89,0,0,1,13.09,5.47l61.52,61.52Z"/><path class="cls-4" d="M1240.58,397.09V450L1264,473.44a18.75,18.75,0,0,0,32-13.28,17.85,17.85,0,0,0-5.47-13.09Zm0-40.6,20-19.95,30-29.89a18.09,18.09,0,0,0,5.47-13.29,17.83,17.83,0,0,0-5.47-13.08,18.86,18.86,0,0,0-26.56,0l-27.31,27.31-14.14,14.14,18,18ZM1091.73,460.16a18.68,18.68,0,0,0,18.75,18.75,17.85,17.85,0,0,0,13.09-5.47l8.84-8.82a267.16,267.16,0,0,0-40.23-8.61A18.72,18.72,0,0,0,1091.73,460.16Zm-75.11-5a18.4,18.4,0,0,0-.67,5,18.68,18.68,0,0,0,18.75,18.75,17.85,17.85,0,0,0,13.09-5.47l19.77-19.74q-8.64-.46-17.53-.46A290.29,290.29,0,0,0,1016.62,455.13Z"/><path class="cls-4" d="M1211.05,310.23l-28.69,28.64,11.52,11.53,28.67-28.67,18,18v16.73l-20.33,20.27,20.33,20.33V450l-46.7-46.7-61.47,61.3a267.16,267.16,0,0,0-40.23-8.61,17.88,17.88,0,0,1,5-8.94l70.31-70.31L1156,365.43l-88.43,88.27q-8.64-.46-17.53-.46a290.29,290.29,0,0,0-33.41,1.89,18.05,18.05,0,0,1,4.8-8.06l108-108.2-32.23-32.22-75.78-75.79a18.71,18.71,0,1,1,26.37-26.56L1156,312.5l28.64-28.69,14.13-14.15L1264,204.3a18.78,18.78,0,0,1,26.56,26.56L1225.2,296.1Z"/><path class="cls-6" d="M1020,90.9H343.44a10,10,0,0,0,0,20h668.28l172.91,172.91,14.13-14.15Zm246,806.88c-1.75-2.85-3.57-5.63-5.42-8.37v-198h25.6a12.81,12.81,0,0,0,8.58-3c2.35-2,3.18-3.7,2.52-5q-.72-72.51-36.7-125.87v-226L1225.2,296.1l-14.15,14.13,29.53,29.53V532.18q-7-7.66-14.95-14.86a238.92,238.92,0,0,0-93.22-52.7,267.16,267.16,0,0,0-40.23-8.61q-12-1.63-24.62-2.31-8.64-.46-17.53-.46a290.29,290.29,0,0,0-33.41,1.89,260.41,260.41,0,0,0-39.9,7.74h0a247,247,0,0,0-42.34,16,264.82,264.82,0,0,0-60.94,41.44q-74.7,67.13-74.68,176.1,0,143.31,131.19,203.85,58.51,27.26,120.09,27.25,37.34,2,69.13,29.26t31.79,68.63q0,39.36-29.77,64.59T1050,1115.25h-1v125.33H640.23a183.43,183.43,0,0,0,45.5-24.41,293.11,293.11,0,0,0,46.93-42.38q21.69-24.22,34.81-63.58t13.12-87.8V461.81H662.2a130.49,130.49,0,0,1-35,13.52v547.08l-3,22.2q-2,22.22-23.71,44.41t-61.06,22.2H439.49q-11.12,0-11.1,9.08v120.28H343.44a10,10,0,0,0,0,20h917.14V1160.05q39.7-55.33,39.73-134.61Q1300.31,953.8,1266,897.78Zm-25.42,342.8h-84.3a257.46,257.46,0,0,0,70.36-43.58q7.33-6.35,13.94-13.12Zm0-376.48q-29.34-31.86-71.46-51.6Q1111.6,785.26,1050,785.25q-41.38,0-71.14-23.71t-29.77-65.09q0-46.41,28.76-72.16T1050,598.56q41.37,0,69.64,21.7t29.26,63.07q0,8.08,11.1,8.07h80.55Z"/></svg>