<svg width="21" height="21" viewBox="0 0 21 21" fill="none" xmlns="http://www.w3.org/2000/svg">
<path d="M10.5 0C4.7019 0 0 4.7019 0 10.5C0 16.2981 4.7019 21 10.5 21C16.2981 21 21 16.2981 21 10.5C21 4.7019 16.2981 0 10.5 0ZM15.2942 8.18678C15.2988 8.29012 15.3011 8.39394 15.3011 8.49825C15.3011 11.6829 12.877 15.3552 8.44393 15.3554H8.44409H8.44393C7.08289 15.3554 5.81637 14.9564 4.7498 14.2728C4.93838 14.2951 5.13032 14.3061 5.32466 14.3061C6.45387 14.3061 7.49304 13.921 8.318 13.2745C7.26297 13.2549 6.37344 12.5582 6.06647 11.6005C6.21339 11.6287 6.36447 11.6441 6.5194 11.6441C6.73938 11.6441 6.95247 11.6145 7.15498 11.5592C6.05221 11.3384 5.22148 10.3638 5.22148 9.19679C5.22148 9.1859 5.22148 9.17612 5.2218 9.16603C5.54656 9.3466 5.91795 9.45522 6.31336 9.4674C5.66624 9.03561 5.24087 8.29749 5.24087 7.46132C5.24087 7.01976 5.36023 6.60608 5.56723 6.24992C6.75572 7.70821 8.53189 8.66727 10.5349 8.76805C10.4936 8.59149 10.4723 8.40756 10.4723 8.21851C10.4723 6.88806 11.5517 5.80868 12.8826 5.80868C13.5759 5.80868 14.202 6.10172 14.6418 6.57019C15.1908 6.46188 15.7064 6.26129 16.1722 5.98524C15.9919 6.54776 15.61 7.01976 15.1123 7.31824C15.5999 7.25993 16.0645 7.13063 16.4963 6.93869C16.1738 7.42207 15.7647 7.84664 15.2942 8.18678Z" fill="#131B3A" fill-opacity="0.7"/>
</svg>
