<svg id="Layer_1" data-name="Layer 1" xmlns="http://www.w3.org/2000/svg" xmlns:xlink="http://www.w3.org/1999/xlink" viewBox="0 0 1351.47 1351.47"><defs><style>.cls-1{fill:#07102b;}.cls-2{fill:url(#linear-gradient);}.cls-3{fill:#fff;}</style><linearGradient id="linear-gradient" x1="535.63" y1="481.08" x2="1286.96" y2="1341.59" gradientUnits="userSpaceOnUse"><stop offset="0" stop-color="#e91b58"/><stop offset="0.09" stop-color="#eb3949"/><stop offset="0.24" stop-color="#ef6633"/><stop offset="0.4" stop-color="#f28b21"/><stop offset="0.55" stop-color="#f5a812"/><stop offset="0.7" stop-color="#f7bc08"/><stop offset="0.85" stop-color="#f8c902"/><stop offset="1" stop-color="#f8cd00"/></linearGradient></defs><title>logo</title><rect class="cls-1" x="-11.56" y="-11.56" width="1374.6" height="1374.6"/><path class="cls-2" d="M1266,893.29c-1.75-2.85-3.57-5.63-5.42-8.37v-198h25.6a12.81,12.81,0,0,0,8.58-3c2.35-2,3.18-3.7,2.52-5q-.72-72.51-36.7-125.87V332.18L1242,308.37l-19.72-25.27-8.11-10.39-19.94-25.56L1072.29,90.9H343.44a10,10,0,0,0,0,20h719.08l119.09,152.6L1201.5,289l8,10.32,19.8,25.37,11.23,14.39V527.69q-7-7.66-14.95-14.86a240.59,240.59,0,0,0-56.84-38.57A236.7,236.7,0,0,0,1138.36,462q-6.31-2.07-12.8-3.8a269,269,0,0,0-34.35-6.81,312.62,312.62,0,0,0-41.18-2.64q-11.28,0-22.22.82-56.46,4.24-104,30.34a268.32,268.32,0,0,0-50.35,35.95Q798.73,583,798.75,692q0,143.31,131.19,203.85,58.51,27.26,120.09,27.25,37.34,2,69.13,29.26T1151,1021q0,39.36-29.77,64.59T1050,1110.76h-1v129.81H626.09c2.86-.85,5.74-1.72,8.68-2.65q25.74-8.06,51-26.24a293.11,293.11,0,0,0,46.93-42.38q21.69-24.22,34.82-63.58t13.12-87.8V457.32H627.2v560.6l-3,22.2q-2,22.22-23.71,44.41t-61.06,22.2H439.49q-11.12,0-11.1,9.08v124.76H343.44a10,10,0,0,0,0,20h917.14v-105q39.7-55.33,39.73-134.61Q1300.31,949.31,1266,893.29Zm-25.42,347.28h-96a255.71,255.71,0,0,0,82.09-48.06q7.33-6.35,13.94-13.12Zm0-381q-29.32-31.86-71.46-51.6Q1111.6,780.77,1050,780.76q-41.38,0-71.14-23.71T949.12,692q0-46.41,28.76-72.16T1050,594.07q41.37,0,69.64,21.7t29.26,63.07q0,8.08,11.1,8.07h80.55Z"/><path class="cls-3" d="M258.14,236.51H103.56a2,2,0,0,0-2,2v26.33a2,2,0,0,0,2,2h61.95V449.57H103.56a2,2,0,0,0-2,2v26.34a2,2,0,0,0,2,2H258.14a2,2,0,0,0,2-2V451.57a2,2,0,0,0-2-2H243.73L195.85,388.3V266.84h62.29a2,2,0,0,0,2-2V238.51A2,2,0,0,0,258.14,236.51ZM212.3,449.57H195.85V428.63Z"/><path class="cls-3" d="M512.24,236.51H485.91a2,2,0,0,0-2,2V437.05l-13.78-18.29V335.64a2,2,0,0,0-2-2H441.79a2,2,0,0,0-2,2V379L330.17,237.29a2,2,0,0,0-1.58-.78H299.18a2,2,0,0,0-2,2v239.4a2,2,0,0,0,2,2h26.33a2,2,0,0,0,2-2V286.14l13.79,18V477.91a2,2,0,0,0,2,2h26.33a2,2,0,0,0,2-2V343.56L476.12,479.13a2,2,0,0,0,1.58.78h34.54a2,2,0,0,0,2-2V238.51A2,2,0,0,0,512.24,236.51Z"/><path class="cls-3" d="M761.51,271.54a122.69,122.69,0,0,0-86.48-35H560.12a2,2,0,0,0-2,2v239.4a2,2,0,0,0,2,2H675a121.44,121.44,0,0,0,70.67-22.59,122.74,122.74,0,0,0,51.72-100.14A119,119,0,0,0,761.51,271.54Zm-173-4.7H675a92.22,92.22,0,0,1,38.6,8.66L622,391.32,588.46,365.1Zm0,182.73V402.66l60.23,46.91Zm105.88-2.19-49-37.88,92.82-117.44c18.91,17.92,28.89,40.39,28.89,65.12C767.08,400.71,736.55,438.5,694.34,447.38Z"/><path class="cls-3" d="M1026.61,236.51H836.46a2,2,0,0,0-2,2v239.4a2,2,0,0,0,2,2h87.32q47.57-26.1,104-30.34h-163V401.93H1016a2,2,0,0,0,2-2V373.6a2,2,0,0,0-2-2H978.33l-83-104.76h131.29a2,2,0,0,0,2-2V238.51A2,2,0,0,0,1026.61,236.51ZM944.84,371.6H864.79v-101Z"/><path class="cls-3" d="M1214.17,272.71l-19.94-25.56,7.61-9.86a2,2,0,0,1,1.58-.78h34.89a2,2,0,0,1,2,2,2,2,0,0,1-.47,1.28Z"/><path class="cls-3" d="M1301,478.79a2,2,0,0,1-1.8,1.12h-34.54a2,2,0,0,1-1.58-.77l-2.48-3.18-20-25.69L1214,416.18l-45.24,58.08-3.8,4.88a2,2,0,0,1-1.58.77h-34.88a2,2,0,0,1-1.58-3.23L1138.36,462l55.7-71.65-7.75-10.07-60.75,77.92a269,269,0,0,0-34.35-6.81l75.14-96.6-89.67-115a2,2,0,0,1,1.57-3.23h34.54a2,2,0,0,1,1.58.77l43.9,56.45,23.34-30.23L1201.5,289l-23.57,30.23,8,10.12,23.58-30,12.73-16.2,36-45.83a2,2,0,0,1,1.57-.76h33.86a2,2,0,0,1,1.58,3.23L1242,308.37l-12.65,16.3L1206,354.79l34.62,44.51,20,25.72,40.18,51.66A2,2,0,0,1,1301,478.79Z"/></svg>